SplineFontDB: 3.2
FontName: ProggyForever-Alt
FullName: ProggyForever-Alt
FamilyName: ProggyForever-Alt
Weight: Regular
Copyright: Copyright (c) 2026 Disco Hello, Copyright (c) 2019,2023 Tristan Grimmer
Version: Version 1.000
ItalicAngle: 0
UnderlinePosition: 0
UnderlineWidth: 0
Ascent: 819
Descent: 205
InvalidEm: 0
sfntRevision: 0x00010000
LayerCount: 2
Layer: 0 0 "Back" 1
Layer: 1 0 "Fore" 0
XUID: [1021 241 -561272057 4488]
StyleMap: 0x0040
FSType: 0
OS2Version: 4
OS2_WeightWidthSlopeOnly: 0
OS2_UseTypoMetrics: 0
CreationTime: 1770654402
ModificationTime: 1771016081
PfmFamily: 81
TTFWeight: 400
TTFWidth: 5
LineGap: 0
VLineGap: 0
Panose: 0 0 0 0 0 0 0 0 0 0
OS2TypoAscent: 658
OS2TypoAOffset: 0
OS2TypoDescent: -189
OS2TypoDOffset: 0
OS2TypoLinegap: 0
OS2WinAscent: 703
OS2WinAOffset: 0
OS2WinDescent: 191
OS2WinDOffset: 0
HheadAscent: 658
HheadAOffset: 0
HheadDescent: -189
HheadDOffset: 0
OS2SubXSize: 666
OS2SubYSize: 716
OS2SubXOff: 0
OS2SubYOff: 143
OS2SupXSize: 666
OS2SupYSize: 716
OS2SupXOff: 0
OS2SupYOff: 490
OS2StrikeYSize: 50
OS2StrikeYPos: 264
OS2CapHeight: 530
OS2XHeight: 398
OS2Vendor: 'XXXX'
OS2CodePages: 00000003.00000000
OS2UnicodeRanges: 80000007.10000002.00000000.00000000
MarkAttachClasses: 1
DEI: 91125
LangName: 1033 "" "" "" "1.012;ProggyForever-Alt" "" "Version 1.012;Fontself Maker 3.5.17" "" "" "" "Tristan Grimmer, Thiebault Courot" "" "" "" "MIT License" "" "" "ProggyForever-Alt" "Regular"
Encoding: UnicodeBmp
UnicodeInterp: none
NameList: AGL For New Fonts
DisplaySize: -48
AntiAlias: 1
FitToEm: 0
WinInfo: 17 17 8
BeginPrivate: 0
EndPrivate
BeginChars: 65537 192

StartChar: .notdef
Encoding: 65536 -1 0
Width: 450
GlyphClass: 1
Flags: HW
LayerCount: 2
Fore
SplineSet
7 717 m 1
 444 717 l 1
 444 0 l 1
 7 0 l 1
 7 717 l 1
35 696 m 1
 225 380 l 1
 415 696 l 1
 35 696 l 1
212 358 m 1
 28 666 l 1
 28 50 l 1
 212 358 l 1
226 337 m 1
 36 22 l 1
 415 22 l 1
 226 337 l 1
238 358 m 1
 423 48 l 1
 423 668 l 1
 238 358 l 1
EndSplineSet
Validated: 1
EndChar

StartChar: exclam
Encoding: 33 33 2
Width: 450
GlyphClass: 1
Flags: HW
LayerCount: 2
Fore
SplineSet
257 200 m 1
 197 200 l 1
 182 466 l 1
 183 560 l 1
 268 560 l 1
 268 466 l 1
 257 200 l 1
225 107 m 0
 255 107 280 83 280 53 c 0
 280 23 255 -2 225 -2 c 0
 195 -2 170 23 170 53 c 0
 170 83 195 107 225 107 c 0
EndSplineSet
Validated: 1
EndChar

StartChar: quotedbl
Encoding: 34 34 3
Width: 450
GlyphClass: 1
Flags: HW
LayerCount: 2
Fore
SplineSet
185 334 m 1
 119 334 l 1
 119 531 l 1
 185 531 l 1
 185 334 l 1
331 334 m 1
 265 334 l 1
 265 531 l 1
 331 531 l 1
 331 334 l 1
EndSplineSet
Validated: 1
EndChar

StartChar: numbersign
Encoding: 35 35 4
Width: 450
GlyphClass: 1
Flags: HW
LayerCount: 2
Fore
SplineSet
457 324 m 1
 351 324 l 1
 320 206 l 1
 413 206 l 1
 413 151 l 1
 305 151 l 1
 266 4 l 1
 206 4 l 1
 245 151 l 1
 151 151 l 1
 112 4 l 1
 52 4 l 1
 91 151 l 1
 -7 151 l 1
 -7 206 l 1
 106 206 l 1
 137 324 l 1
 37 324 l 1
 37 379 l 1
 151 379 l 1
 191 526 l 1
 251 526 l 1
 211 379 l 1
 306 379 l 1
 345 526 l 1
 405 526 l 1
 366 379 l 1
 457 379 l 1
 457 324 l 1
260 206 m 1
 291 324 l 1
 197 324 l 1
 166 206 l 1
 260 206 l 1
EndSplineSet
Validated: 1
EndChar

StartChar: dollar
Encoding: 36 36 5
Width: 450
GlyphClass: 1
Flags: HW
LayerCount: 2
Fore
SplineSet
399 163 m 0
 399 80 343 40 255 31 c 1
 255 -15 l 1
 194 -15 l 1
 194 29 l 1
 110 32 57 57 57 57 c 1
 57 122 l 1
 57 122 110 88 194 81 c 1
 194 247 l 1
 119 261 51 285 51 367 c 0
 51 440 106 488 194 500 c 1
 194 546 l 1
 255 546 l 1
 255 502 l 1
 312 498 368 479 368 479 c 1
 368 416 l 1
 368 416 324 445 255 449 c 1
 255 296 l 1
 259 296 399 284 399 163 c 0
194 308 m 1
 194 446 l 1
 146 438 120 416 120 371 c 0
 120 335 156 318 194 308 c 1
255 83 m 1
 295 91 329 115 329 160 c 0
 329 203 301 222 255 234 c 1
 255 83 l 1
EndSplineSet
Validated: 1
EndChar

StartChar: percent
Encoding: 37 37 6
Width: 450
GlyphClass: 1
Flags: HW
LayerCount: 2
Fore
SplineSet
214 419 m 0
 214 365 167 322 110 322 c 0
 53 322 6 365 6 419 c 0
 6 473 53 517 110 517 c 0
 167 517 214 473 214 419 c 0
59 419 m 0
 59 393 82 372 110 372 c 0
 138 372 161 393 161 419 c 0
 161 445 138 467 110 467 c 0
 82 467 59 445 59 419 c 0
340 207 m 0
 397 207 444 164 444 110 c 0
 444 56 397 12 340 12 c 0
 283 12 236 56 236 110 c 0
 236 164 283 207 340 207 c 0
341 62 m 0
 369 62 392 84 392 110 c 0
 392 136 369 158 341 158 c 0
 313 158 289 136 289 110 c 0
 289 84 313 62 341 62 c 0
338 517 m 1
 410 517 l 1
 114 14 l 1
 41 14 l 1
 338 517 l 1
EndSplineSet
Validated: 1
EndChar

StartChar: ampersand
Encoding: 38 38 7
Width: 450
GlyphClass: 1
Flags: HW
LayerCount: 2
Fore
SplineSet
377 81 m 1
 416 35 445 0 445 0 c 1
 371 -0 l 1
 371 0 358 15 337 40 c 1
 299 9 249 -10 185 -10 c 0
 86 -10 5 65 5 155 c 0
 5 231 51 279 102 317 c 1
 66 358 45 382 45 433 c 0
 45 481 82 545 171 545 c 0
 260 545 285 500 285 439 c 0
 285 380 237 345 187 309 c 1
 224 264 285 192 338 129 c 1
 365 177 375 235 375 269 c 1
 437 270 l 1
 437 205 418 135 377 81 c 1
112 436 m 0
 112 433 112 431 112 428 c 0
 112 416 115 400 152 353 c 1
 194 382 228 409 228 445 c 0
 228 475 204 492 173 492 c 0
 141 492 112 468 112 436 c 0
211 45 m 0
 249 45 279 59 302 82 c 1
 256 136 195 208 139 273 c 1
 102 243 72 208 72 157 c 0
 72 90 138 45 211 45 c 0
EndSplineSet
Validated: 1
EndChar

StartChar: quotesingle
Encoding: 39 39 8
Width: 450
GlyphClass: 1
Flags: HW
LayerCount: 2
Fore
SplineSet
260 335 m 1
 190 335 l 1
 190 532 l 1
 260 532 l 1
 260 335 l 1
EndSplineSet
Validated: 1
EndChar

StartChar: parenleft
Encoding: 40 40 9
Width: 450
GlyphClass: 1
Flags: HW
LayerCount: 2
Fore
SplineSet
312 587 m 1
 254 505 212 373 212 262 c 0
 212 151 254 18 312 -64 c 1
 251 -63 l 1
 251 -63 138 82 138 261 c 0
 138 440 251 586 251 586 c 1
 312 587 l 1
EndSplineSet
Validated: 1
EndChar

StartChar: parenright
Encoding: 41 41 10
Width: 450
GlyphClass: 1
Flags: HW
LayerCount: 2
Fore
SplineSet
199 586 m 1
 199 586 312 440 312 261 c 0
 312 82 199 -63 199 -63 c 1
 138 -64 l 1
 196 18 239 151 239 262 c 0
 239 373 196 505 138 587 c 1
 199 586 l 1
EndSplineSet
Validated: 1
EndChar

StartChar: asterisk
Encoding: 42 42 11
Width: 450
GlyphClass: 1
Flags: HW
LayerCount: 2
Fore
SplineSet
423 341 m 1
 289 268 l 1
 423 195 l 1
 390 144 l 1
 258 216 l 1
 258 71 l 1
 192 71 l 1
 192 216 l 1
 61 144 l 1
 28 195 l 1
 161 268 l 1
 28 341 l 1
 61 392 l 1
 192 321 l 1
 192 466 l 1
 258 466 l 1
 258 321 l 1
 390 392 l 1
 423 341 l 1
EndSplineSet
Validated: 1
EndChar

StartChar: plus
Encoding: 43 43 12
Width: 450
GlyphClass: 1
Flags: HW
LayerCount: 2
Fore
SplineSet
257 294 m 1
 427 294 l 1
 427 234 l 1
 257 234 l 1
 257 76 l 1
 193 76 l 1
 193 234 l 1
 23 234 l 1
 23 294 l 1
 193 294 l 1
 193 452 l 1
 257 452 l 1
 257 294 l 1
EndSplineSet
Validated: 1
EndChar

StartChar: comma
Encoding: 44 44 13
Width: 450
VWidth: 1000
GlyphClass: 1
Flags: HW
LayerCount: 2
Fore
SplineSet
232 107 m 1
 261 107 285 83 285 53 c 0
 285 -62 181 -126 181 -126 c 1
 155 -89 l 1
 173 -73 210 -41 220 0 c 1
 197 1 178 26 178 53 c 0
 178 82 202 107 232 107 c 1
EndSplineSet
Validated: 1
EndChar

StartChar: hyphen
Encoding: 45 45 14
Width: 450
GlyphClass: 1
Flags: HW
LayerCount: 2
Fore
SplineSet
396 233 m 1
 54 233 l 1
 54 294 l 1
 396 294 l 1
 396 233 l 1
EndSplineSet
Validated: 1
EndChar

StartChar: period
Encoding: 46 46 15
Width: 450
GlyphClass: 1
Flags: HW
LayerCount: 2
Fore
SplineSet
225 107 m 0
 255 107 280 83 280 53 c 0
 280 23 255 -1 225 -1 c 0
 195 -1 170 23 170 53 c 0
 170 83 195 107 225 107 c 0
EndSplineSet
Validated: 1
EndChar

StartChar: slash
Encoding: 47 47 16
Width: 450
GlyphClass: 1
Flags: HW
LayerCount: 2
Fore
SplineSet
410 564 m 1
 112 -34 l 1
 40 -34 l 1
 338 564 l 1
 410 564 l 1
EndSplineSet
Validated: 1
EndChar

StartChar: zero
Encoding: 48 48 17
Width: 450
GlyphClass: 1
Flags: HWO
HStem: -9 60<166 284> 479 59<165 286>
VStem: 37 79<117 416> 335 79<117 416>
LayerCount: 2
Fore
SplineSet
187 264 m 0
 187 301 201 341 225 341 c 0
 249 341 263 301 263 264 c 0
 263 227 249 190 225 190 c 0
 201 190 187 227 187 264 c 0
225 538 m 0
 326 538 414 479 414 265 c 0
 414 51 324 -9 225 -9 c 0
 126 -9 37 51 37 265 c 0
 37 479 124 538 225 538 c 0
225 52 m 0
 275 52 335 77 335 265 c 0
 335 453 277 479 225 479 c 0
 173 479 115 453 115 265 c 0
 115 77 175 52 225 52 c 0
EndSplineSet
Validated: 1
EndChar

StartChar: one
Encoding: 49 49 18
Width: 450
GlyphClass: 1
Flags: HW
LayerCount: 2
Fore
SplineSet
83 367 m 1
 82 450 l 1
 190 531 l 1
 260 531 l 1
 260 62 l 1
 368 62 l 1
 368 0 l 1
 82 0 l 1
 82 62 l 1
 191 62 l 1
 191 449 l 1
 83 367 l 1
EndSplineSet
Validated: 1
EndChar

StartChar: two
Encoding: 50 50 19
Width: 450
GlyphClass: 1
Flags: HW
LayerCount: 2
Fore
SplineSet
56 425 m 1
 55 491 l 1
 55 491 129 541 214 541 c 0
 354 541 391 444 391 392 c 0
 391 340 370 294 286 211 c 0
 202 128 136 62 136 62 c 1
 399 62 l 1
 399 0 l 1
 52 0 l 1
 52 47 l 2
 52 58 55 65 64 73 c 0
 73 81 183 192 235 244 c 0
 287 296 313 354 313 398 c 0
 313 442 270 482 208 482 c 0
 145 482 58 425 56 425 c 1
EndSplineSet
Validated: 1
EndChar

StartChar: three
Encoding: 51 51 20
Width: 450
GlyphClass: 1
Flags: HW
LayerCount: 2
Fore
SplineSet
289 284 m 1
 350 268 404 231 404 143 c 0
 404 55 324 -10 207 -10 c 0
 130 -10 47 17 47 17 c 1
 47 87 l 1
 47 87 109 51 203 51 c 0
 280 51 328 86 328 153 c 0
 328 220 274 254 211 254 c 2
 145 254 l 1
 145 313 l 1
 211 313 l 2
 274 313 315 346 315 398 c 0
 315 450 273 480 213 480 c 0
 137 480 65 452 65 452 c 1
 65 517 l 1
 65 517 140 541 210 541 c 0
 317 541 390 485 390 404 c 0
 390 332 349 300 289 284 c 1
EndSplineSet
Validated: 1
EndChar

StartChar: four
Encoding: 52 52 21
Width: 450
GlyphClass: 1
Flags: HWO
LayerCount: 2
Fore
SplineSet
338 185 m 1
 428 185 l 1
 428 126 l 1
 338 126 l 1
 338 0 l 1
 270 0 l 1
 270 126 l 1
 23 126 l 1
 23 189 l 1
 244 531 l 5
 338 531 l 1
 338 185 l 1
276 185 m 1
 276 465 l 1
 95 185 l 1
 276 185 l 1
EndSplineSet
EndChar

StartChar: five
Encoding: 53 53 22
Width: 450
GlyphClass: 1
Flags: HW
LayerCount: 2
Fore
SplineSet
74 264 m 1
 74 531 l 1
 369 531 l 1
 369 470 l 1
 144 470 l 1
 144 340 l 1
 144 340 167 351 210 351 c 0
 288 351 400 312 400 171 c 0
 400 30 291 -10 194 -10 c 0
 97 -10 50 12 50 12 c 1
 50 85 l 1
 50 85 110 50 199 50 c 0
 250 50 324 75 324 170 c 0
 324 265 253 291 188 291 c 0
 123 291 74 264 74 264 c 1
EndSplineSet
Validated: 1
EndChar

StartChar: six
Encoding: 54 54 23
Width: 450
GlyphClass: 1
Flags: HW
LayerCount: 2
Fore
SplineSet
240 351 m 1
 240 351 l 1
 320 351 408 301 408 176 c 0
 408 51 339 -8 231 -8 c 0
 123 -8 42 52 42 249 c 0
 42 456 149 532 273 532 c 0
 329 532 367 517 367 517 c 1
 367 450 l 1
 367 450 335 475 275 475 c 0
 189 475 113 419 113 277 c 1
 127 305 161 351 240 351 c 1
230 49 m 0
 277 49 333 68 333 171 c 0
 333 274 278 295 230 295 c 0
 182 295 127 267 127 171 c 0
 127 75 183 49 230 49 c 0
EndSplineSet
Validated: 1
EndChar

StartChar: seven
Encoding: 55 55 24
Width: 450
GlyphClass: 1
Flags: HW
LayerCount: 2
Fore
SplineSet
47 470 m 1
 47 531 l 1
 403 531 l 1
 403 500 l 1
 200 0 l 1
 121 0 l 1
 316 469 l 1
 47 470 l 1
EndSplineSet
Validated: 1
EndChar

StartChar: eight
Encoding: 56 56 25
Width: 450
GlyphClass: 1
Flags: HW
LayerCount: 2
Fore
SplineSet
308 283 m 1
 373 261 410 213 410 141 c 0
 410 43 324 -10 225 -10 c 0
 126 -10 40 41 40 141 c 0
 40 214 77 262 141 283 c 1
 87 303 56 345 56 407 c 0
 56 496 134 542 225 542 c 0
 316 542 395 495 395 407 c 0
 395 346 363 303 308 283 c 1
225 485 m 0
 181 485 131 474 131 397 c 0
 131 320 183 309 225 309 c 0
 267 309 319 320 319 397 c 0
 319 474 269 485 225 485 c 0
225 46 m 0
 275 46 331 59 331 149 c 0
 331 239 273 251 225 251 c 0
 177 251 120 239 120 149 c 0
 120 59 175 46 225 46 c 0
EndSplineSet
Validated: 1
EndChar

StartChar: nine
Encoding: 57 57 26
Width: 450
GlyphClass: 1
Flags: HW
LayerCount: 2
Fore
SplineSet
210 181 m 1
 130 181 42 232 42 357 c 0
 42 482 111 540 219 540 c 0
 327 540 408 481 408 284 c 0
 408 77 301 0 177 0 c 0
 121 0 83 16 83 16 c 1
 83 82 l 1
 83 82 116 57 176 57 c 0
 262 57 337 113 337 255 c 1
 323 227 289 181 210 181 c 1
220 483 m 0
 173 483 117 464 117 361 c 0
 117 258 172 238 220 238 c 0
 268 238 324 265 324 361 c 0
 324 457 267 483 220 483 c 0
EndSplineSet
Validated: 1
EndChar

StartChar: colon
Encoding: 58 58 27
Width: 450
GlyphClass: 1
Flags: HWO
LayerCount: 2
Fore
SplineSet
225 132 m 4
 255 132 280 108 280 78 c 4
 280 48 255 24 225 24 c 4
 195 24 170 48 170 78 c 4
 170 108 195 132 225 132 c 4
225 270 m 4
 195 270 170 294 170 324 c 4
 170 354 195 378 225 378 c 4
 255 378 280 354 280 324 c 4
 280 294 255 270 225 270 c 4
EndSplineSet
EndChar

StartChar: semicolon
Encoding: 59 59 28
Width: 450
GlyphClass: 1
Flags: HW
LayerCount: 2
Fore
SplineSet
225 107 m 4
 255 107 281 82 281 52 c 4
 281 -66 174 -132 174 -132 c 5
 146 -94 l 5
 165 -78 203 -45 213 -2 c 5
 190 -1 170 24 170 52 c 4
 170 82 195 107 225 107 c 4
226 245 m 4
 196 245 171 269 171 299 c 4
 171 329 196 353 226 353 c 4
 256 353 281 329 281 299 c 4
 281 269 256 245 226 245 c 4
EndSplineSet
EndChar

StartChar: less
Encoding: 60 60 29
Width: 450
GlyphClass: 1
Flags: HW
LayerCount: 2
Fore
SplineSet
25 293 m 1
 425 441 l 1
 425 378 l 1
 106 264 l 1
 425 150 l 1
 425 86 l 1
 25 235 l 1
 25 293 l 1
EndSplineSet
Validated: 1
EndChar

StartChar: equal
Encoding: 61 61 30
Width: 450
GlyphClass: 1
Flags: WO
VStem: 64 322<156 217 318 379>
LayerCount: 2
Fore
SplineSet
388 318 m 5
 66 318 l 5
 66 379 l 5
 388 379 l 5
 388 318 l 5
388 156 m 5
 66 156 l 5
 66 217 l 5
 388 217 l 5
 388 156 l 5
EndSplineSet
EndChar

StartChar: greater
Encoding: 62 62 31
Width: 450
GlyphClass: 1
Flags: HW
LayerCount: 2
Fore
SplineSet
25 442 m 1
 425 294 l 1
 425 236 l 1
 25 87 l 1
 25 150 l 1
 344 265 l 1
 25 379 l 1
 25 442 l 1
EndSplineSet
Validated: 1
EndChar

StartChar: question
Encoding: 63 63 32
Width: 450
GlyphClass: 1
Flags: HW
LayerCount: 2
Fore
SplineSet
222 108 m 0
 252 108 277 84 277 54 c 0
 277 24 252 0 222 0 c 0
 192 0 167 24 167 54 c 0
 167 84 192 108 222 108 c 0
232 556 m 0
 351 556 400 500 400 433 c 0
 400 331 255 306 255 241 c 2
 255 199 l 1
 183 199 l 1
 183 240 l 2
 183 337 334 362 334 434 c 0
 334 476 293 497 236 497 c 0
 144 497 104 418 104 418 c 5
 50 453 l 5
 50 453 113 556 232 556 c 0
EndSplineSet
Validated: 1
EndChar

StartChar: at
Encoding: 64 64 33
Width: 450
GlyphClass: 1
Flags: HW
LayerCount: 2
Fore
SplineSet
255 -52 m 0
 87 -52 -1 75 -1 212 c 0
 -1 376 93 485 233 485 c 0
 335 485 446 439 446 235 c 0
 446 149 426 58 355 58 c 0
 310 58 289 86 289 95 c 1
 268 77 246 66 219 66 c 0
 151 66 96 130 96 211 c 0
 96 289 148 353 222 353 c 0
 264 353 283 333 289 323 c 1
 289 346 l 1
 339 346 l 1
 339 132 l 1
 340 122 355 113 362 121 c 0
 376 137 390 171 390 244 c 0
 390 392 326 437 234 437 c 0
 136 437 52 356 52 213 c 0
 52 168 64 1 273 1 c 0
 339 1 358 20 362 21 c 1
 379 -13 376 -6 386 -27 c 1
 354 -40 307 -52 255 -52 c 0
221 129 m 0
 258 129 282 163 282 211 c 0
 282 259 258 291 221 291 c 0
 184 291 156 259 156 211 c 0
 156 164 185 129 221 129 c 0
EndSplineSet
EndChar

StartChar: A
Encoding: 65 65 34
Width: 450
GlyphClass: 1
Flags: HW
LayerCount: 2
Fore
SplineSet
272 531 m 1
 444 0 l 1
 365 0 l 1
 324 139 l 1
 126 139 l 1
 85 0 l 1
 6 0 l 1
 179 531 l 1
 272 531 l 1
145 196 m 1
 306 196 l 1
 225 468 l 1
 145 196 l 1
EndSplineSet
Validated: 1
EndChar

StartChar: B
Encoding: 66 66 35
Width: 450
GlyphClass: 1
Flags: HW
LayerCount: 2
Fore
SplineSet
296 284 m 1
 326 278 411 255 411 146 c 0
 411 37 318 1 238 1 c 2
 40 1 l 1
 40 531 l 1
 221 531 l 2
 343 531 376 451 376 389 c 0
 376 328 332 290 296 284 c 1
154 312 m 0
 251 312 310 312 310 395 c 0
 310 457 267 472 217 472 c 2
 112 472 l 1
 112 312 l 1
 112 312 130 312 154 312 c 0
225 59 m 2
 316 59 346 92 346 161 c 0
 346 230 288 253 235 253 c 2
 112 253 l 1
 112 59 l 1
 225 59 l 2
EndSplineSet
Validated: 1
EndChar

StartChar: C
Encoding: 67 67 36
Width: 450
GlyphClass: 1
Flags: HW
LayerCount: 2
Fore
SplineSet
402 95 m 1
 402 20 l 1
 370 2 328 -8 271 -8 c 0
 112 -8 49 115 49 267 c 0
 49 419 122 542 271 542 c 0
 328 542 370 529 402 509 c 1
 402 436 l 1
 369 465 326 482 271 482 c 0
 162 482 125 385 125 265 c 0
 125 145 163 48 271 48 c 0
 326 48 370 66 402 95 c 1
EndSplineSet
Validated: 1
EndChar

StartChar: D
Encoding: 68 68 37
Width: 450
GlyphClass: 1
Flags: HW
LayerCount: 2
Fore
SplineSet
204 531 m 2
 298 531 409 488 409 265 c 0
 409 42 298 1 205 1 c 0
 145 1 41 0 41 0 c 1
 41 531 l 1
 204 531 l 2
203 59 m 2
 260 59 332 91 332 266 c 0
 332 441 261 472 203 472 c 2
 118 472 l 1
 118 59 l 1
 203 59 l 2
EndSplineSet
Validated: 1
EndChar

StartChar: E
Encoding: 69 69 38
Width: 450
GlyphClass: 1
Flags: HW
LayerCount: 2
Fore
SplineSet
54 531 m 1
 396 531 l 1
 396 470 l 1
 130 470 l 1
 131 313 l 1
 364 313 l 1
 364 253 l 1
 130 253 l 1
 130 61 l 1
 396 61 l 1
 396 0 l 1
 54 0 l 1
 54 531 l 1
EndSplineSet
Validated: 1
EndChar

StartChar: F
Encoding: 70 70 39
Width: 450
GlyphClass: 1
Flags: HW
LayerCount: 2
Fore
SplineSet
60 531 m 1
 391 531 l 1
 391 470 l 1
 136 470 l 1
 137 308 l 1
 322 307 l 1
 322 247 l 1
 136 247 l 1
 135 0 l 1
 60 0 l 1
 60 531 l 1
EndSplineSet
Validated: 1
EndChar

StartChar: G
Encoding: 71 71 40
Width: 450
GlyphClass: 1
Flags: HW
LayerCount: 2
Fore
SplineSet
342 69 m 1
 341 213 l 1
 239 213 l 1
 239 273 l 1
 414 273 l 1
 414 44 l 1
 414 44 368 -8 258 -8 c 0
 99 -8 37 115 37 267 c 0
 37 419 109 542 258 542 c 0
 315 542 357 529 389 509 c 1
 389 436 l 1
 356 465 313 482 258 482 c 0
 149 482 113 385 113 265 c 0
 113 145 150 48 258 48 c 0
 320 48 342 69 342 69 c 1
EndSplineSet
Validated: 1
EndChar

StartChar: H
Encoding: 72 72 41
Width: 450
GlyphClass: 1
Flags: HW
LayerCount: 2
Fore
SplineSet
44 0 m 1
 44 531 l 1
 121 531 l 1
 121 313 l 1
 330 313 l 1
 330 531 l 1
 406 531 l 1
 406 0 l 1
 330 0 l 1
 330 253 l 1
 121 253 l 1
 121 1 l 1
 44 0 l 1
EndSplineSet
Validated: 1
EndChar

StartChar: I
Encoding: 73 73 42
Width: 450
GlyphClass: 1
Flags: HW
LayerCount: 2
Fore
SplineSet
68 470 m 1
 68 531 l 1
 382 531 l 1
 382 470 l 1
 263 470 l 1
 263 61 l 1
 382 61 l 1
 382 1 l 1
 68 0 l 1
 68 59 l 1
 186 59 l 1
 186 470 l 1
 68 470 l 1
EndSplineSet
Validated: 1
EndChar

StartChar: J
Encoding: 74 74 43
Width: 450
GlyphClass: 1
Flags: HW
LayerCount: 2
Fore
SplineSet
162 531 m 1
 383 531 l 1
 383 168 l 2
 383 67 349 -6 235 -6 c 0
 121 -6 68 -7 68 -7 c 1
 68 51 l 1
 218 51 l 2
 284 51 305 81 305 160 c 2
 305 470 l 1
 162 470 l 1
 162 531 l 1
EndSplineSet
Validated: 1
EndChar

StartChar: K
Encoding: 75 75 44
Width: 450
GlyphClass: 1
Flags: HW
LayerCount: 2
Fore
SplineSet
20 0 m 1
 20 531 l 1
 96 531 l 1
 96 295 l 1
 335 531 l 1
 422 531 l 1
 205 314 l 1
 431 0 l 1
 339 0 l 1
 154 266 l 1
 96 208 l 1
 96 1 l 1
 20 0 l 1
EndSplineSet
Validated: 1
EndChar

StartChar: L
Encoding: 76 76 45
Width: 450
GlyphClass: 1
Flags: HW
LayerCount: 2
Fore
SplineSet
50 1 m 1
 50 531 l 1
 127 531 l 1
 127 61 l 1
 400 61 l 1
 400 1 l 1
 50 1 l 1
EndSplineSet
Validated: 1
EndChar

StartChar: M
Encoding: 77 77 46
Width: 450
GlyphClass: 1
Flags: HW
LayerCount: 2
Fore
SplineSet
20 0 m 1
 20 531 l 1
 123 531 l 1
 225 270 l 1
 328 531 l 1
 430 531 l 1
 430 1 l 1
 363 0 l 1
 363 464 l 1
 254 184 l 1
 196 184 l 1
 87 466 l 1
 87 1 l 1
 20 0 l 1
EndSplineSet
Validated: 1
EndChar

StartChar: N
Encoding: 78 78 47
Width: 450
GlyphClass: 1
Flags: HW
LayerCount: 2
Fore
SplineSet
47 0 m 1
 47 531 l 1
 143 531 l 1
 334 99 l 1
 334 531 l 1
 407 531 l 1
 407 0 l 1
 311 0 l 1
 120 432 l 1
 120 0 l 1
 47 0 l 1
EndSplineSet
Validated: 1
EndChar

StartChar: O
Encoding: 79 79 48
AltUni2: 0000d3.ffffffff.0 0000d3.ffffffff.0
Width: 450
GlyphClass: 1
Flags: HW
LayerCount: 2
Fore
SplineSet
225 542 m 0
 326 542 414 482 414 268 c 0
 414 54 324 -5 225 -5 c 0
 126 -5 37 54 37 268 c 0
 37 482 124 542 225 542 c 0
225 55 m 0
 275 55 335 80 335 268 c 0
 335 456 277 482 225 482 c 0
 173 482 115 456 115 268 c 0
 115 80 175 55 225 55 c 0
EndSplineSet
Validated: 1
EndChar

StartChar: P
Encoding: 80 80 49
Width: 450
GlyphClass: 1
Flags: HW
LayerCount: 2
Fore
SplineSet
224 531 m 2
 343 531 404 469 404 377 c 0
 404 285 352 213 231 213 c 2
 123 213 l 1
 123 0 l 1
 46 0 l 1
 46 531 l 1
 224 531 l 2
211 273 m 2
 303 273 323 331 323 373 c 0
 323 415 303 472 219 472 c 2
 123 472 l 1
 123 273 l 1
 211 273 l 2
EndSplineSet
Validated: 1
EndChar

StartChar: Q
Encoding: 81 81 50
Width: 450
GlyphClass: 1
Flags: HW
LayerCount: 2
Fore
SplineSet
202 539 m 0
 303 539 391 479 391 265 c 0
 391 175 375 113 350 71 c 1
 436 -28 l 1
 436 -73 l 1
 388 -73 l 1
 303 20 l 1
 273 0 238 -8 202 -8 c 0
 103 -8 14 51 14 265 c 0
 14 479 101 539 202 539 c 0
203 52 m 0
 253 52 313 77 313 265 c 0
 313 453 255 479 203 479 c 0
 151 479 93 453 93 265 c 0
 93 77 153 52 203 52 c 0
EndSplineSet
Validated: 1
EndChar

StartChar: R
Encoding: 82 82 51
Width: 450
GlyphClass: 1
Flags: HW
LayerCount: 2
Fore
SplineSet
116 224 m 1
 116 1 l 1
 40 1 l 1
 40 531 l 1
 223 531 l 2
 335 531 389 457 389 369 c 0
 389 305 343 256 285 235 c 1
 410 1 l 1
 329 1 l 1
 216 223 l 1
 116 224 l 1
219 472 m 2
 117 472 l 1
 117 284 l 1
 117 284 134 284 157 284 c 0
 180 284 207 284 227 285 c 0
 268 287 313 314 313 380 c 0
 313 442 269 472 219 472 c 2
EndSplineSet
Validated: 1
EndChar

StartChar: S
Encoding: 83 83 52
Width: 450
GlyphClass: 1
Flags: HW
LayerCount: 2
Fore
SplineSet
374 513 m 1
 374 440 l 1
 374 440 321 479 241 479 c 0
 160 479 116 455 116 388 c 0
 116 321 209 310 261 300 c 0
 313 290 406 257 406 146 c 0
 406 35 328 -10 212 -10 c 0
 113 -10 51 23 51 23 c 1
 51 99 l 1
 51 99 116 49 221 49 c 0
 275 49 334 76 334 143 c 0
 334 210 282 225 201 241 c 0
 120 257 44 284 44 383 c 0
 44 482 120 541 239 541 c 0
 304 541 374 513 374 513 c 1
EndSplineSet
Validated: 1
EndChar

StartChar: T
Encoding: 84 84 53
Width: 450
GlyphClass: 1
Flags: HW
LayerCount: 2
Fore
SplineSet
10 470 m 1
 10 531 l 1
 440 531 l 1
 440 470 l 1
 264 470 l 1
 264 1 l 1
 187 0 l 1
 187 470 l 1
 10 470 l 1
EndSplineSet
Validated: 1
EndChar

StartChar: U
Encoding: 85 85 54
Width: 450
GlyphClass: 1
Flags: HW
LayerCount: 2
Fore
SplineSet
38 170 m 2
 38 531 l 1
 116 531 l 1
 116 163 l 2
 116 102 125 47 219 47 c 0
 313 47 335 83 335 171 c 2
 335 531 l 1
 412 531 l 1
 412 183 l 2
 412 84 394 -10 226 -10 c 0
 58 -10 38 84 38 170 c 2
EndSplineSet
Validated: 1
EndChar

StartChar: V
Encoding: 86 86 55
Width: 450
GlyphClass: 1
Flags: HW
LayerCount: 2
Fore
SplineSet
179 0 m 1
 14 531 l 1
 88 531 l 1
 225 65 l 1
 362 531 l 1
 437 531 l 1
 272 0 l 1
 179 0 l 1
EndSplineSet
Validated: 1
EndChar

StartChar: W
Encoding: 87 87 56
Width: 450
GlyphClass: 1
Flags: HW
LayerCount: 2
Fore
SplineSet
76 0 m 1
 -6 531 l 1
 59 531 l 1
 118 107 l 1
 182 531 l 1
 267 531 l 1
 333 106 l 1
 392 531 l 1
 457 531 l 1
 374 0 l 1
 299 0 l 1
 225 451 l 1
 151 0 l 1
 76 0 l 1
EndSplineSet
Validated: 1
EndChar

StartChar: X
Encoding: 88 88 57
Width: 450
GlyphClass: 1
Flags: HW
LayerCount: 2
Fore
SplineSet
188 281 m 1
 25 531 l 1
 107 531 l 1
 231 331 l 1
 357 531 l 1
 439 531 l 1
 270 281 l 1
 451 0 l 1
 369 0 l 1
 225 223 l 1
 81 0 l 1
 -1 0 l 1
 188 281 l 1
EndSplineSet
Validated: 1
EndChar

StartChar: Y
Encoding: 89 89 58
AltUni2: 000178.ffffffff.0 000178.ffffffff.0
Width: 450
GlyphClass: 1
Flags: HW
LayerCount: 2
Fore
SplineSet
187 240 m 1
 6 531 l 1
 87 531 l 1
 225 297 l 1
 362 531 l 1
 444 531 l 1
 263 239 l 1
 263 0 l 1
 186 0 l 1
 187 240 l 1
EndSplineSet
Validated: 1
EndChar

StartChar: Z
Encoding: 90 90 59
Width: 450
GlyphClass: 1
Flags: HW
LayerCount: 2
Fore
SplineSet
42 470 m 1
 42 531 l 1
 409 531 l 1
 409 476 l 1
 114 61 l 1
 416 61 l 1
 416 1 l 1
 34 0 l 1
 34 57 l 1
 320 470 l 1
 42 470 l 1
EndSplineSet
Validated: 1
EndChar

StartChar: bracketleft
Encoding: 91 91 60
Width: 450
GlyphClass: 1
Flags: HW
LayerCount: 2
Fore
SplineSet
343 543 m 1
 177 543 l 1
 177 -12 l 1
 343 -12 l 1
 343 -68 l 1
 107 -68 l 1
 107 599 l 1
 343 599 l 1
 343 543 l 1
EndSplineSet
Validated: 1
EndChar

StartChar: backslash
Encoding: 92 92 61
Width: 450
GlyphClass: 1
Flags: HW
LayerCount: 2
Fore
SplineSet
112 564 m 1
 410 -34 l 1
 338 -34 l 1
 40 564 l 1
 112 564 l 1
EndSplineSet
Validated: 1
EndChar

StartChar: bracketright
Encoding: 93 93 62
Width: 450
GlyphClass: 1
Flags: HW
LayerCount: 2
Fore
SplineSet
107 599 m 1
 343 599 l 1
 343 -68 l 1
 107 -68 l 1
 107 -12 l 1
 273 -12 l 1
 273 543 l 1
 107 543 l 1
 107 599 l 1
EndSplineSet
Validated: 1
EndChar

StartChar: asciicircum
Encoding: 94 94 63
Width: 450
GlyphClass: 1
Flags: HW
LayerCount: 2
Fore
SplineSet
258 531 m 1
 412 328 l 1
 328 328 l 1
 225 472 l 1
 122 328 l 1
 38 328 l 1
 192 531 l 1
 258 531 l 1
EndSplineSet
Validated: 1
EndChar

StartChar: underscore
Encoding: 95 95 64
Width: 450
GlyphClass: 1
Flags: HW
LayerCount: 2
Fore
SplineSet
465 -67 m 1
 -15 -67 l 1
 -15 -10 l 1
 465 -10 l 1
 465 -67 l 1
EndSplineSet
Validated: 1
EndChar

StartChar: grave
Encoding: 96 96 65
Width: 450
GlyphClass: 1
Flags: HW
LayerCount: 2
Fore
SplineSet
212 582 m 1
 323 426 l 1
 238 426 l 1
 127 582 l 1
 212 582 l 1
EndSplineSet
Validated: 1
EndChar

StartChar: a
Encoding: 97 97 66
Width: 450
GlyphClass: 1
Flags: HW
LayerCount: 2
Fore
SplineSet
50 119 m 0
 50 252 200 253 275 253 c 0
 306 253 330 252 330 252 c 1
 330 267 l 2
 330 298 323 353 232 353 c 0
 149 353 106 351 106 351 c 1
 106 407 l 1
 149 407 155 408 219 408 c 0
 312 408 400 382 400 247 c 2
 400 -0 l 1
 337 -0 l 1
 337 0 338 11 338 27 c 0
 338 35 338 44 337 53 c 1
 304 0 242 -9 196 -9 c 0
 114 -9 50 30 50 119 c 0
209 45 m 0
 328 45 330 164 330 201 c 1
 271 201 l 2
 183 201 119 195 119 118 c 0
 119 64 165 45 209 45 c 0
EndSplineSet
Validated: 1
EndChar

StartChar: b
Encoding: 98 98 67
Width: 450
GlyphClass: 1
Flags: WO
LayerCount: 2
Fore
SplineSet
238 408 m 1x78
 329 408 399 344 399 200 c 0
 399 56 321 -9 248 -9 c 0xb8
 175 -9 121 51 121 51 c 1
 114 1 l 1
 51 1 l 1
 51 574 l 1
 121 574 l 1
 121 348 l 1
 121 348 147 408 238 408 c 1x78
233 48 m 4
 315 48 336 114 336 199 c 0
 336 284 313 346 233 346 c 0
 153 346 117 287 117 202 c 0
 117 117 151 48 233 48 c 4
EndSplineSet
EndChar

StartChar: c
Encoding: 99 99 68
Width: 450
GlyphClass: 1
Flags: HW
LayerCount: 2
Fore
SplineSet
275 353 m 1
 275 353 l 1
 190 353 135 307 135 200 c 0
 135 93 190 46 275 46 c 0
 317 46 358 63 389 90 c 1
 389 23 l 1
 354 -1 310 -9 261 -9 c 0
 151 -9 61 61 61 200 c 0
 61 339 151 408 261 408 c 0
 310 408 354 400 389 376 c 1
 389 309 l 1
 358 336 317 353 275 353 c 1
EndSplineSet
Validated: 1
EndChar

StartChar: d
Encoding: 100 100 69
Width: 450
GlyphClass: 1
Flags: HW
LayerCount: 2
Fore
SplineSet
329 574 m 1
 399 574 l 1
 399 1 l 1
 336 1 l 1
 329 51 l 1
 329 51 275 -9 202 -9 c 0
 129 -9 51 56 51 200 c 0
 51 344 121 408 212 408 c 0
 303 408 329 348 329 348 c 1
 329 574 l 1
227 46 m 0
 304 46 329 114 329 199 c 0
 329 284 302 353 227 353 c 0
 152 353 125 284 125 199 c 0
 125 114 150 46 227 46 c 0
EndSplineSet
Validated: 1
EndChar

StartChar: e
Encoding: 101 101 70
Width: 450
GlyphClass: 1
Flags: HW
LayerCount: 2
Fore
SplineSet
111 184 m 1
 111 118 143 46 243 46 c 0
 305 46 343 62 396 86 c 1
 396 21 l 1
 350 2 305 -9 240 -9 c 0
 121 -9 38 67 38 199 c 0
 38 331 122 408 226 408 c 0
 360 408 411 323 411 233 c 0
 411 221 412 184 412 184 c 1
 111 184 l 1
233 353 m 0
 170 353 114 300 114 234 c 1
 343 234 l 1
 343 312 308 353 233 353 c 0
EndSplineSet
Validated: 1
EndChar

StartChar: f
Encoding: 102 102 71
Width: 450
GlyphClass: 1
Flags: HWO
LayerCount: 2
Fore
SplineSet
307 505 m 2
 263 505 240 496 240 442 c 2
 240 365 l 1
 366 365 l 1
 366 306 l 1
 240 306 l 1
 240 4 l 1
 170 4 l 1
 170 306 l 1
 48 306 l 5
 48 365 l 5
 170 365 l 1
 170 418 l 2
 170 530 220 561 302 561 c 2
 408 561 l 1
 408 505 l 1
 307 505 l 2
EndSplineSet
EndChar

StartChar: g
Encoding: 103 103 72
Width: 450
GlyphClass: 1
Flags: HW
LayerCount: 2
Fore
SplineSet
336 399 m 1
 399 399 l 1
 399 -13 l 2
 399 -134 330 -190 223 -190 c 2
 90 -190 l 1
 90 -131 l 1
 229 -131 l 2
 310 -131 335 -60 335 -14 c 2
 335 46 l 1
 335 46 308 -1 217 -1 c 0
 126 -1 52 61 52 205 c 0
 52 349 133 408 206 408 c 0
 272 408 300 397 337 359 c 1
 336 399 l 1
227 54 m 0
 302 54 329 115 329 200 c 0
 329 285 304 354 227 354 c 0
 150 354 121 285 121 200 c 0
 121 115 152 54 227 54 c 0
EndSplineSet
Validated: 1
EndChar

StartChar: h
Encoding: 104 104 73
Width: 450
GlyphClass: 1
Flags: HW
LayerCount: 2
Fore
SplineSet
259 412 m 0
 328 412 387 358 387 263 c 2
 387 1 l 1
 318 1 l 1
 318 257 l 2
 318 319 290 352 239 352 c 0
 177 352 133 312 133 229 c 2
 133 1 l 1
 64 1 l 1
 64 574 l 1
 133 574 l 1
 133 351 l 1
 155 386 193 412 259 412 c 0
EndSplineSet
Validated: 1
EndChar

StartChar: i
Encoding: 105 105 74
Width: 450
GlyphClass: 1
Flags: HWO
LayerCount: 2
Fore
SplineSet
140 339 m 1
 140 399 l 1
 305 399 l 1
 305 1 l 1
 235 1 l 1
 235 339 l 1
 140 339 l 1
295 469 m 2
 237 469 l 2
 232 469 227 474 227 479 c 2
 227 544 l 2
 227 549 232 554 237 554 c 2
 295 554 l 2
 300 554 305 549 305 544 c 2
 305 479 l 2
 305 474 300 469 295 469 c 2
EndSplineSet
EndChar

StartChar: j
Encoding: 106 106 75
Width: 450
GlyphClass: 1
Flags: HW
LayerCount: 2
Fore
SplineSet
319 469 m 2
 261 469 l 2
 256 469 251 474 251 479 c 2
 251 544 l 2
 251 549 256 554 261 554 c 2
 319 554 l 2
 324 554 328 549 328 544 c 2
 328 479 l 2
 328 474 324 469 319 469 c 2
150 340 m 1
 150 399 l 1
 329 399 l 1
 329 -25 l 2
 329 -116 300 -190 198 -190 c 2
 84 -190 l 1
 84 -129 l 1
 191 -129 l 2
 229 -129 259 -96 259 -25 c 2
 259 340 l 1
 150 340 l 1
EndSplineSet
EndChar

StartChar: k
Encoding: 107 107 76
Width: 450
GlyphClass: 1
Flags: HW
LayerCount: 2
Fore
SplineSet
215 251 m 1
 407 2 l 1
 325 2 l 1
 167 208 l 1
 115 161 l 1
 115 2 l 1
 43 2 l 1
 43 554 l 1
 115 554 l 1
 115 235 l 1
 300 400 l 1
 382 400 l 1
 215 251 l 1
EndSplineSet
Validated: 1
EndChar

StartChar: l
Encoding: 108 108 77
Width: 450
GlyphClass: 1
Flags: HW
LayerCount: 2
Fore
SplineSet
137 532 m 1
 314 532 l 1
 314 1 l 1
 243 1 l 1
 243 470 l 1
 137 470 l 1
 137 532 l 1
EndSplineSet
Validated: 1
EndChar

StartChar: m
Encoding: 109 109 78
Width: 450
GlyphClass: 1
Flags: HW
LayerCount: 2
Fore
SplineSet
332 408 m 1
 332 408 l 1
 392 408 429 355 429 284 c 2
 429 -1 l 1
 367 -1 l 1
 367 266 l 2
 367 328 348 352 314 352 c 0
 278 352 261 330 257 280 c 2
 257 -1 l 1
 195 -1 l 1
 195 266 l 2
 195 328 175 352 141 352 c 0
 105 352 89 330 85 281 c 2
 85 -1 l 1
 21 -1 l 1
 21 397 l 1
 85 397 l 1
 85 379 l 1
 104 396 130 408 159 408 c 0
 195 408 224 389 240 358 c 1
 258 388 292 408 332 408 c 1
EndSplineSet
Validated: 1
EndChar

StartChar: n
Encoding: 110 110 79
Width: 450
GlyphClass: 1
Flags: HW
LayerCount: 2
Fore
SplineSet
259 412 m 0
 328 412 387 358 387 263 c 2
 387 1 l 1
 318 1 l 1
 318 257 l 2
 318 319 290 352 239 352 c 0
 177 352 133 312 133 229 c 2
 133 1 l 1
 64 1 l 1
 64 399 l 1
 129 399 l 1
 133 351 l 1
 155 386 193 412 259 412 c 0
EndSplineSet
Validated: 1
EndChar

StartChar: o
Encoding: 111 111 80
Width: 450
GlyphClass: 1
Flags: HW
LayerCount: 2
Fore
SplineSet
225 409 m 0
 334 409 406 344 406 200 c 0
 406 56 340 -9 225 -9 c 0
 110 -9 44 56 44 200 c 0
 44 344 116 409 225 409 c 0
225 45 m 0
 282 45 331 84 331 201 c 0
 331 318 278 354 225 354 c 0
 172 354 119 318 119 201 c 0
 119 84 168 45 225 45 c 0
EndSplineSet
Validated: 1
EndChar

StartChar: p
Encoding: 112 112 81
Width: 450
GlyphClass: 1
Flags: HW
LayerCount: 2
Fore
SplineSet
240 401 m 2
 240 401 l 2
 324 401 399 336 399 192 c 0
 399 48 329 -16 238 -16 c 0
 147 -16 121 44 121 44 c 1
 121 -182 l 1
 51 -182 l 1
 51 391 l 1
 114 391 l 1
 121 341 l 1
 121 341 155 401 240 401 c 2
233 39 m 0
 308 39 335 107 335 191 c 0
 335 275 310 343 233 343 c 0
 156 343 131 275 131 191 c 0
 131 107 158 39 233 39 c 0
EndSplineSet
Validated: 1
EndChar

StartChar: q
Encoding: 113 113 82
Width: 450
GlyphClass: 1
Flags: HW
LayerCount: 2
Fore
SplineSet
336 391 m 1
 399 391 l 1
 399 -182 l 1
 329 -182 l 1
 329 44 l 1
 329 44 303 -16 212 -16 c 0
 121 -16 51 48 51 192 c 0
 51 336 126 401 210 401 c 0
 295 401 329 341 329 341 c 1
 336 391 l 1
217 39 m 0
 292 39 319 107 319 191 c 0
 319 275 294 343 217 343 c 0
 140 343 115 275 115 191 c 0
 115 107 142 39 217 39 c 0
EndSplineSet
Validated: 1
EndChar

StartChar: r
Encoding: 114 114 83
Width: 450
GlyphClass: 1
Flags: HW
LayerCount: 2
Fore
SplineSet
297 414 m 4xd0
 366 414 403 384 403 384 c 5
 403 308 l 5
 403 308 365 348 293 348 c 4xd0
 212 348 164 297 164 255 c 6
 164 0 l 1
 94 0 l 1
 94 405 l 5
 163 405 l 5xb0
 162 361 l 5
 184 396 231 414 297 414 c 4xd0
EndSplineSet
EndChar

StartChar: s
Encoding: 115 115 84
Width: 450
GlyphClass: 1
Flags: HW
LayerCount: 2
Fore
SplineSet
238 239 m 1
 238 239 l 1
 323 227 380 205 380 125 c 0
 380 45 313 -1 215 -1 c 0
 145 -1 71 23 71 23 c 1
 71 91 l 1
 71 91 142 53 209 53 c 0
 210 53 211 53 212 53 c 0
 277 54 309 83 309 117 c 0
 309 153 275 173 216 183 c 0
 95 204 72 242 72 297 c 0
 72 352 104 416 232 416 c 0
 307 416 358 393 358 393 c 1
 358 329 l 1
 358 329 310 362 234 362 c 0
 158 362 143 333 143 303 c 0
 143 273 153 251 238 239 c 1
EndSplineSet
Validated: 1
EndChar

StartChar: t
Encoding: 116 116 85
Width: 450
GlyphClass: 1
Flags: HW
LayerCount: 2
Fore
SplineSet
221 66 m 0
 261 66 361 67 361 67 c 1
 361 7 l 1
 232 7 l 2
 161 7 90 16 90 139 c 2
 90 527 l 1
 159 527 l 1
 159 407 l 1
 326 407 l 1
 326 347 l 1
 159 347 l 1
 159 139 l 2
 159 88 181 66 221 66 c 0
EndSplineSet
Validated: 1
EndChar

StartChar: u
Encoding: 117 117 86
Width: 450
GlyphClass: 1
Flags: HW
LayerCount: 2
Fore
SplineSet
56 148 m 2
 56 398 l 1
 125 398 l 1
 125 152 l 2
 125 83 153 47 213 47 c 0
 273 47 322 88 322 141 c 0
 322 245 324 398 324 398 c 1
 394 398 l 1
 395 1 l 1
 330 1 l 1
 330 44 l 1
 330 44 311 -10 211 -10 c 0
 104 -10 56 38 56 148 c 2
EndSplineSet
Validated: 1
EndChar

StartChar: v
Encoding: 118 118 87
Width: 450
GlyphClass: 1
Flags: HW
LayerCount: 2
Fore
SplineSet
348 398 m 1
 420 398 l 1
 269 0 l 1
 180 0 l 1
 30 398 l 1
 102 398 l 1
 225 64 l 1
 348 398 l 1
EndSplineSet
Validated: 1
EndChar

StartChar: w
Encoding: 119 119 88
Width: 450
GlyphClass: 1
Flags: HW
LayerCount: 2
Fore
SplineSet
389 398 m 1
 458 398 l 1
 358 0 l 1
 293 0 l 1
 225 220 l 1
 158 0 l 1
 91 -0 l 1
 -8 398 l 1
 61 398 l 1
 131 87 l 1
 186 284 l 1
 263 284 l 1
 325 87 l 1
 389 398 l 1
EndSplineSet
Validated: 1
EndChar

StartChar: x
Encoding: 120 120 89
Width: 450
GlyphClass: 1
Flags: HW
LayerCount: 2
Fore
SplineSet
263 207 m 1
 429 0 l 1
 349 0 l 1
 224 159 l 1
 101 0 l 1
 21 -0 l 1
 188 209 l 1
 35 398 l 1
 113 398 l 1
 225 254 l 1
 336 398 l 1
 415 398 l 1
 263 207 l 1
EndSplineSet
Validated: 1
EndChar

StartChar: y
Encoding: 121 121 90
Width: 450
GlyphClass: 1
Flags: HW
LayerCount: 2
Fore
SplineSet
399 399 m 1
 399 399 402 13 402 -36 c 0
 402 -76 376 -192 285 -192 c 2
 85 -192 l 1
 85 -132 l 1
 265 -132 l 2
 328 -132 331 -54 331 -13 c 0
 331 -8 331 -4 331 0 c 1
 195 0 l 2
 89 0 48 73 48 130 c 0
 48 187 49 398 49 398 c 1
 119 399 l 1
 119 164 l 2
 119 103 130 62 190 62 c 2
 331 62 l 1
 329 398 l 1
 399 399 l 1
EndSplineSet
Validated: 1
EndChar

StartChar: z
Encoding: 122 122 91
Width: 450
GlyphClass: 1
Flags: HW
LayerCount: 2
Fore
SplineSet
140 53 m 1
 383 53 l 1
 384 -0 l 1
 67 -0 l 1
 67 60 l 1
 67 60 306 342 310 347 c 1
 298 347 76 347 76 347 c 1
 76 399 l 1
 384 399 l 1
 384 337 l 1
 140 53 l 1
EndSplineSet
Validated: 1
EndChar

StartChar: braceleft
Encoding: 123 123 92
Width: 450
GlyphClass: 1
Flags: HW
LayerCount: 2
Fore
SplineSet
273 482 m 2
 273 380 l 2
 273 346 268 281 200 265 c 1
 268 249 273 184 273 150 c 2
 273 48 l 2
 273 2 298 -16 355 -16 c 2
 385 -16 l 1
 385 -80 l 1
 385 -80 354 -79 340 -79 c 0
 205 -79 201 5 201 66 c 2
 201 155 l 2
 201 215 175 231 118 231 c 2
 65 231 l 1
 65 299 l 1
 118 299 l 2
 175 299 201 315 201 375 c 2
 201 464 l 2
 201 525 205 609 340 609 c 0
 354 609 385 609 385 609 c 1
 385 546 l 1
 355 546 l 2
 298 546 273 528 273 482 c 2
EndSplineSet
Validated: 1
EndChar

StartChar: verticalbar
Encoding: 124 124 93
Width: 450
GlyphClass: 1
Flags: HW
LayerCount: 2
Fore
SplineSet
258 -56 m 1
 193 -56 l 1
 193 588 l 1
 258 588 l 1
 258 -56 l 1
EndSplineSet
Validated: 1
EndChar

StartChar: braceright
Encoding: 125 125 94
Width: 450
GlyphClass: 1
Flags: HW
LayerCount: 2
Fore
SplineSet
177 380 m 2
 177 482 l 2
 177 528 152 546 95 546 c 2
 65 546 l 1
 65 609 l 1
 65 609 96 609 110 609 c 0
 245 609 249 524 249 463 c 2
 249 375 l 2
 249 315 275 299 332 299 c 2
 385 299 l 1
 385 231 l 1
 332 231 l 2
 275 231 249 215 249 155 c 2
 249 66 l 2
 249 5 245 -80 110 -80 c 0
 96 -80 65 -80 65 -80 c 1
 65 -16 l 1
 65 -16 72 -16 95 -16 c 0
 152 -16 177 2 177 48 c 2
 177 150 l 2
 177 184 182 249 250 265 c 1
 182 281 177 346 177 380 c 2
EndSplineSet
Validated: 1
EndChar

StartChar: asciitilde
Encoding: 126 126 95
Width: 450
GlyphClass: 1
Flags: HW
LayerCount: 2
Fore
SplineSet
368 330 m 1
 427 317 l 1
 418 271 402 182 311 182 c 0
 223 182 195 302 140 302 c 0
 138 302 136 301 134 301 c 0
 88 293 82 209 82 209 c 1
 23 222 l 1
 32 269 47 357 138 357 c 0
 226 357 254 237 309 237 c 0
 311 237 313 238 315 238 c 0
 361 246 368 330 368 330 c 1
EndSplineSet
Validated: 1
EndChar

StartChar: exclamdown
Encoding: 161 161 96
Width: 450
GlyphClass: 1
Flags: HW
LayerCount: 2
Fore
SplineSet
201 339 m 1
 248 339 l 1
 277 139 l 1
 276 -21 l 1
 173 -21 l 1
 173 138 l 1
 201 339 l 1
225 410 m 0
 191 410 164 438 164 472 c 0
 164 506 191 533 225 533 c 0
 259 533 287 506 287 472 c 0
 287 438 259 410 225 410 c 0
EndSplineSet
Validated: 1
EndChar

StartChar: cent
Encoding: 162 162 97
Width: 450
GlyphClass: 1
Flags: HW
LayerCount: 2
Fore
SplineSet
288 352 m 1
 288 48 l 1
 324 49 355 56 386 76 c 1
 386 15 l 1
 355 1 326 -7 288 -9 c 1
 288 -111 l 1
 249 -111 l 1
 249 -8 l 1
 147 0 65 71 65 202 c 0
 65 336 144 404 249 409 c 1
 249 509 l 1
 288 509 l 1
 288 409 l 1
 328 406 364 396 386 383 c 1
 386 322 l 1
 370 332 333 349 288 352 c 1
249 50 m 1
 249 352 l 1
 184 343 138 297 138 201 c 0
 138 106 180 59 249 50 c 1
EndSplineSet
Validated: 1
EndChar

StartChar: sterling
Encoding: 163 163 98
Width: 450
GlyphClass: 1
Flags: HW
LayerCount: 2
Fore
SplineSet
207 61 m 5
 409 60 l 5
 409 -0 l 1
 41 -0 l 1
 41 60 l 1
 130 60 l 1
 130 225 l 1
 55 225 l 1
 55 277 l 1
 130 277 l 1
 130 361 l 2
 130 482 188 541 295 541 c 0
 371 541 401 520 401 520 c 1
 401 455 l 1
 401 455 352 485 309 485 c 0
 244 485 207 455 207 366 c 2
 207 277 l 1
 346 277 l 1
 346 226 l 1
 207 226 l 5
 207 61 l 5
EndSplineSet
Validated: 1
EndChar

StartChar: currency
Encoding: 164 164 99
Width: 450
GlyphClass: 1
Flags: HW
LayerCount: 2
Fore
SplineSet
353 228 m 0
 353 203 345 179 331 160 c 1
 392 101 l 1
 358 65 l 1
 294 127 l 1
 274 115 251 107 225 107 c 0
 199 107 175 115 155 127 c 1
 92 65 l 1
 57 101 l 1
 119 160 l 1
 105 179 97 203 97 228 c 0
 97 253 105 276 119 295 c 1
 57 354 l 1
 92 390 l 1
 155 329 l 1
 175 341 199 349 225 349 c 0
 251 349 274 341 294 329 c 1
 358 390 l 1
 392 354 l 1
 331 295 l 1
 345 276 353 253 353 228 c 0
225 152 m 0
 269 152 305 186 305 228 c 0
 305 270 269 304 225 304 c 0
 181 304 144 270 144 228 c 0
 144 186 181 152 225 152 c 0
EndSplineSet
Validated: 1
EndChar

StartChar: yen
Encoding: 165 165 100
Width: 450
GlyphClass: 1
Flags: HW
LayerCount: 2
Fore
SplineSet
444 531 m 1
 322 332 l 1
 414 332 l 1
 414 292 l 1
 297 292 l 1
 264 237 l 1
 264 226 l 1
 414 226 l 1
 414 187 l 1
 264 187 l 1
 264 0 l 1
 186 0 l 1
 186 187 l 1
 35 187 l 1
 35 226 l 1
 186 226 l 1
 186 237 l 1
 152 292 l 1
 35 292 l 1
 35 332 l 1
 128 332 l 1
 6 531 l 1
 87 531 l 1
 225 297 l 1
 363 531 l 1
 444 531 l 1
EndSplineSet
Validated: 1
EndChar

StartChar: brokenbar
Encoding: 166 166 101
Width: 450
GlyphClass: 1
Flags: HW
LayerCount: 2
Fore
SplineSet
258 313 m 1
 193 313 l 1
 193 582 l 1
 258 582 l 1
 258 313 l 1
258 -51 m 1
 193 -51 l 1
 193 219 l 1
 258 219 l 1
 258 -51 l 1
EndSplineSet
Validated: 1
EndChar

StartChar: section
Encoding: 167 167 102
Width: 450
GlyphClass: 1
Flags: HW
LayerCount: 2
Fore
SplineSet
311 120 m 1
 346 95 358 75 358 43 c 0
 358 -8 322 -69 214 -69 c 0
 157 -69 98 -49 98 -49 c 1
 98 9 l 1
 98 9 157 -18 209 -18 c 0
 261 -18 288 8 288 41 c 0
 288 74 252 91 191 125 c 0
 119 165 66 193 66 262 c 0
 66 300 93 337 138 358 c 1
 103 383 91 404 91 436 c 0
 91 487 128 541 236 541 c 0
 293 541 346 520 346 520 c 1
 346 462 l 1
 346 462 293 490 241 490 c 0
 189 490 161 471 161 438 c 0
 161 405 198 387 259 353 c 0
 331 313 384 285 384 216 c 0
 384 178 356 141 311 120 c 1
272 145 m 1
 303 162 322 189 322 209 c 0
 322 248 281 277 227 306 c 0
 208 316 192 325 178 333 c 1
 147 316 128 290 128 270 c 0
 128 231 169 201 223 172 c 0
 242 162 258 153 272 145 c 1
EndSplineSet
Validated: 1
EndChar

StartChar: dieresis
Encoding: 168 168 103
Width: 450
GlyphClass: 1
Flags: HW
LayerCount: 2
Fore
SplineSet
180 480 m 2
 121 480 l 2
 116 480 112 484 112 489 c 2
 112 542 l 2
 112 547 116 552 121 552 c 2
 180 552 l 2
 185 552 189 547 189 542 c 2
 189 489 l 2
 189 484 185 480 180 480 c 2
329 480 m 2
 270 480 l 2
 265 480 261 484 261 489 c 2
 261 542 l 2
 261 547 265 552 270 552 c 2
 329 552 l 2
 334 552 339 547 339 542 c 2
 339 489 l 2
 339 484 334 480 329 480 c 2
EndSplineSet
Validated: 1
EndChar

StartChar: copyright
Encoding: 169 169 104
Width: 450
GlyphClass: 1
Flags: HW
LayerCount: 2
Fore
SplineSet
86 264 m 0
 86 354 149 397 229 397 c 0
 265 397 296 393 319 381 c 1
 319 342 l 1
 301 351 271 363 240 363 c 0
 178 363 138 333 138 264 c 0
 138 196 178 166 240 166 c 0
 270 166 302 174 319 184 c 1
 319 147 l 1
 298 138 266 130 230 130 c 0
 150 130 86 174 86 264 c 0
225 485 m 0
 354 485 458 385 458 263 c 0
 458 141 354 42 225 42 c 0
 96 42 -8 141 -8 263 c 0
 -8 385 96 485 225 485 c 0
225 81 m 0
 332 81 419 163 419 264 c 0
 419 365 332 446 225 446 c 0
 118 446 32 365 32 264 c 0
 32 163 118 81 225 81 c 0
EndSplineSet
Validated: 1
EndChar

StartChar: ordfeminine
Encoding: 170 170 105
Width: 450
GlyphClass: 1
Flags: HW
LayerCount: 2
Fore
SplineSet
95 337 m 0
 95 419 177 433 257 433 c 0
 271 433 285 433 298 432 c 1
 298 433 298 433 298 434 c 0
 298 451 296 499 220 499 c 0
 159 499 118 475 118 475 c 1
 118 521 l 1
 144 530 173 542 220 542 c 0
 288 542 353 513 353 418 c 2
 353 255 l 1
 307 255 l 1
 299 294 l 1
 270 261 238 248 204 248 c 0
 144 248 95 274 95 337 c 0
299 393 m 1
 291 393 283 393 275 393 c 0
 204 393 149 391 149 340 c 0
 149 303 184 291 209 291 c 0
 279 291 299 344 299 387 c 0
 299 389 299 391 299 393 c 1
355 167 m 1
 103 167 l 1
 103 211 l 1
 355 211 l 1
 355 167 l 1
EndSplineSet
Validated: 1
EndChar

StartChar: guillemotleft
Encoding: 171 171 106
Width: 450
GlyphClass: 1
Flags: HW
LayerCount: 2
Fore
SplineSet
229 308 m 1
 115 213 l 1
 229 118 l 1
 229 50 l 1
 51 199 l 1
 51 228 l 1
 229 376 l 1
 229 308 l 1
399 376 m 1
 399 308 l 1
 285 213 l 1
 399 118 l 1
 399 50 l 1
 222 199 l 1
 222 228 l 1
 399 376 l 1
EndSplineSet
Validated: 1
EndChar

StartChar: registered
Encoding: 174 174 107
Width: 450
GlyphClass: 1
Flags: HW
LayerCount: 2
Fore
SplineSet
225 485 m 0
 354 485 458 385 458 263 c 0
 458 141 354 42 225 42 c 0
 96 42 -8 141 -8 263 c 0
 -8 385 96 485 225 485 c 0
225 81 m 0
 332 81 419 163 419 264 c 0
 419 365 332 446 225 446 c 0
 118 446 32 365 32 264 c 0
 32 163 118 81 225 81 c 0
268 252 m 1
 285 245 289 242 354 140 c 1
 301 140 l 1
 301 140 270 185 253 211 c 0
 240 232 223 245 206 245 c 2
 179 245 l 1
 179 140 l 1
 131 140 l 1
 131 387 l 1
 225 387 l 2
 310 387 331 353 331 312 c 0
 331 282 306 259 268 252 c 1
233 276 m 0
 255 277 281 289 281 317 c 0
 281 344 257 356 229 356 c 2
 179 356 l 1
 179 275 l 1
 179 275 211 275 233 276 c 0
EndSplineSet
Validated: 1
EndChar

StartChar: overscore
Encoding: 175 175 108
Width: 450
GlyphClass: 1
Flags: HW
LayerCount: 2
Fore
SplineSet
338 450 m 1
 112 450 l 1
 112 502 l 1
 338 502 l 1
 338 450 l 1
EndSplineSet
Validated: 1
EndChar

StartChar: degree
Encoding: 176 176 109
Width: 450
GlyphClass: 1
Flags: HW
LayerCount: 2
Fore
SplineSet
225 540 m 0
 292 540 346 490 346 427 c 0
 346 364 292 313 225 313 c 0
 158 313 104 364 104 427 c 0
 104 490 158 540 225 540 c 0
225 359 m 0
 265 359 298 389 298 427 c 0
 298 465 265 495 225 495 c 0
 185 495 153 465 153 427 c 0
 153 389 185 359 225 359 c 0
EndSplineSet
Validated: 1
EndChar

StartChar: plusminus
Encoding: 177 177 110
Width: 450
GlyphClass: 1
Flags: HW
LayerCount: 2
Fore
SplineSet
425 -1 m 1
 25 -1 l 1
 25 60 l 1
 425 60 l 1
 425 -1 l 1
257 299 m 1
 425 299 l 1
 425 239 l 1
 257 239 l 1
 257 121 l 1
 193 121 l 1
 193 239 l 1
 25 239 l 1
 25 299 l 1
 193 299 l 1
 193 416 l 1
 257 416 l 1
 257 299 l 1
EndSplineSet
Validated: 1
EndChar

StartChar: twosuperior
Encoding: 178 178 111
Width: 450
GlyphClass: 1
Flags: HW
LayerCount: 2
Fore
SplineSet
177 438 m 1
 333 438 l 1
 333 398 l 1
 118 398 l 1
 118 438 l 1
 118 438 197 511 229 541 c 0
 261 571 273 593 273 618 c 0
 273 643 243 663 205 663 c 0
 167 663 120 639 120 639 c 1
 120 681 l 1
 120 681 160 701 212 701 c 0
 299 701 330 651 330 621 c 0
 330 591 317 565 265 517 c 0
 213 469 177 438 177 438 c 1
EndSplineSet
Validated: 1
EndChar

StartChar: threesuperior
Encoding: 179 179 112
Width: 450
GlyphClass: 1
Flags: HW
LayerCount: 2
Fore
SplineSet
339 481 m 1
 339 481 l 1
 339 431 287 395 213 395 c 0
 164 395 112 410 112 410 c 1
 112 453 l 1
 112 453 163 435 206 435 c 0
 234 435 281 450 281 487 c 0
 281 524 244 541 206 541 c 0
 177 541 174 541 174 541 c 1
 174 580 l 1
 174 580 177 580 206 580 c 0
 244 580 273 595 273 624 c 0
 273 648 252 665 214 665 c 0
 166 665 123 649 123 649 c 1
 123 691 l 1
 123 691 172 704 216 704 c 0
 284 704 330 674 330 628 c 0
 330 588 304 571 266 562 c 1
 307 555 339 531 339 481 c 1
EndSplineSet
Validated: 1
EndChar

StartChar: acute
Encoding: 180 180 113
Width: 450
GlyphClass: 1
Flags: HW
LayerCount: 2
Fore
SplineSet
241 582 m 1
 316 582 l 1
 193 448 l 1
 135 448 l 1
 241 582 l 1
EndSplineSet
Validated: 1
EndChar

StartChar: mu
Encoding: 181 181 114
Width: 450
GlyphClass: 1
Flags: HW
LayerCount: 2
Fore
SplineSet
385 50 m 0
 400 50 411 58 411 58 c 1
 411 6 l 1
 411 6 383 -10 354 -10 c 0
 309 -10 301 43 301 43 c 1
 301 43 283 -11 187 -11 c 0
 151 -11 116 9 100 45 c 1
 101 -152 l 1
 38 -152 l 1
 38 397 l 1
 104 397 l 1
 104 151 l 2
 104 82 140 47 189 47 c 0
 247 47 293 88 293 141 c 0
 293 245 295 397 295 397 c 1
 362 397 l 1
 362 397 363 105 363 80 c 0
 363 59 372 50 385 50 c 0
EndSplineSet
Validated: 1
EndChar

StartChar: paragraph
Encoding: 182 182 115
Width: 450
GlyphClass: 1
Flags: HW
LayerCount: 2
Fore
SplineSet
221 531 m 2
 400 531 l 1
 400 -70 l 1
 347 -70 l 1
 347 487 l 1
 275 487 l 1
 275 487 275 -65 275 -70 c 5
 264 -70 222 -70 222 -70 c 5
 221 232 l 1
 126 232 50 300 50 382 c 0
 50 464 126 531 221 531 c 2
EndSplineSet
Validated: 1
EndChar

StartChar: periodcentered
Encoding: 183 183 116
Width: 450
GlyphClass: 1
Flags: HW
LayerCount: 2
Fore
SplineSet
225 326 m 0
 259 326 287 299 287 265 c 0
 287 231 259 203 225 203 c 0
 191 203 164 231 164 265 c 0
 164 299 191 326 225 326 c 0
EndSplineSet
Validated: 1
EndChar

StartChar: cedilla
Encoding: 184 184 117
Width: 450
GlyphClass: 1
Flags: HW
LayerCount: 2
Fore
SplineSet
263 0 m 1
 275 -13 303 -39 303 -80 c 0
 303 -129 258 -140 210 -140 c 0
 176 -140 147 -132 147 -132 c 1
 147 -85 l 1
 147 -85 172 -97 200 -97 c 0
 222 -97 251 -92 251 -67 c 0
 251 -52 242 -31 218 0 c 1
 263 0 l 1
EndSplineSet
Validated: 1
EndChar

StartChar: onesuperior
Encoding: 185 185 118
Width: 450
GlyphClass: 1
Flags: HW
LayerCount: 2
Fore
SplineSet
256 438 m 1
 333 438 l 1
 333 398 l 1
 124 398 l 1
 124 438 l 1
 202 438 l 1
 202 654 l 1
 117 640 l 1
 117 681 l 1
 204 695 l 1
 256 695 l 1
 256 438 l 1
EndSplineSet
Validated: 1
EndChar

StartChar: ordmasculine
Encoding: 186 186 119
Width: 450
GlyphClass: 1
Flags: HW
LayerCount: 2
Fore
SplineSet
225 249 m 0
 136 249 85 295 85 395 c 0
 85 495 141 541 225 541 c 0
 309 541 365 495 365 395 c 0
 365 295 314 249 225 249 c 0
225 499 m 0
 184 499 143 474 143 395 c 0
 143 316 181 290 225 290 c 0
 269 290 307 316 307 395 c 0
 307 474 266 499 225 499 c 0
351 167 m 1
 95 167 l 1
 95 211 l 1
 351 211 l 1
 351 167 l 1
EndSplineSet
Validated: 1
EndChar

StartChar: guillemotright
Encoding: 187 187 120
Width: 450
GlyphClass: 1
Flags: HW
LayerCount: 2
Fore
SplineSet
222 376 m 1
 399 228 l 1
 399 199 l 1
 222 50 l 1
 222 118 l 1
 335 213 l 1
 222 308 l 1
 222 376 l 1
229 228 m 1
 229 199 l 1
 51 50 l 1
 51 118 l 1
 165 213 l 1
 51 308 l 1
 51 376 l 1
 229 228 l 1
EndSplineSet
Validated: 1
EndChar

StartChar: onequarter
Encoding: 188 188 121
Width: 450
GlyphClass: 1
Flags: HW
LayerCount: 2
Fore
SplineSet
126 550 m 1
 42 536 l 1
 42 576 l 1
 131 590 l 1
 180 590 l 1
 180 331 l 1
 257 331 l 1
 257 292 l 1
 49 292 l 1
 49 331 l 1
 126 331 l 1
 126 550 l 1
379 201 m 1
 379 8 l 1
 423 8 l 1
 423 -30 l 1
 379 -30 l 1
 379 -96 l 1
 328 -96 l 1
 328 -30 l 1
 180 -30 l 1
 180 14 l 1
 317 201 l 1
 379 201 l 1
222 10 m 1
 327 10 l 1
 326 157 l 1
 222 10 l 1
421 311 m 1
 430 273 l 1
 29 180 l 1
 19 217 l 1
 421 311 l 1
EndSplineSet
Validated: 1
EndChar

StartChar: onehalf
Encoding: 189 189 122
Width: 450
GlyphClass: 1
Flags: HW
LayerCount: 2
Fore
SplineSet
127 550 m 1
 43 536 l 1
 43 576 l 1
 132 590 l 1
 181 590 l 1
 181 331 l 1
 259 331 l 1
 259 292 l 1
 50 292 l 1
 50 331 l 1
 127 331 l 1
 127 550 l 1
356 23 m 1
 356 23 l 1
 304 -25 269 -56 269 -56 c 1
 424 -56 l 1
 424 -96 l 1
 209 -96 l 1
 209 -57 l 1
 209 -57 288 17 320 47 c 0
 352 77 364 99 364 124 c 0
 364 149 335 169 297 169 c 0
 259 169 212 144 212 144 c 1
 211 187 l 1
 211 187 251 207 303 207 c 0
 390 207 421 157 421 127 c 0
 421 97 408 71 356 23 c 1
421 311 m 1
 430 273 l 1
 29 180 l 1
 19 217 l 1
 421 311 l 1
EndSplineSet
Validated: 1
EndChar

StartChar: threequarters
Encoding: 190 190 123
Width: 450
GlyphClass: 1
Flags: HW
LayerCount: 2
Fore
SplineSet
275 373 m 1
 275 373 l 1
 275 324 219 288 144 288 c 0
 95 288 47 303 47 303 c 1
 47 346 l 1
 47 346 89 327 137 327 c 0
 186 327 216 348 216 380 c 0
 216 412 189 433 142 433 c 2
 109 433 l 1
 109 471 l 1
 139 471 l 2
 181 471 209 487 209 516 c 0
 209 545 180 557 149 557 c 0
 94 557 58 541 58 541 c 1
 58 583 l 1
 58 583 105 595 150 595 c 0
 218 595 265 564 265 521 c 0
 265 478 237 463 201 454 c 1
 242 446 275 422 275 373 c 1
382 201 m 1
 382 8 l 1
 426 8 l 1
 426 -30 l 1
 382 -30 l 1
 382 -96 l 1
 331 -96 l 1
 331 -30 l 1
 184 -30 l 1
 184 14 l 1
 321 201 l 1
 382 201 l 1
226 10 m 1
 330 10 l 1
 330 157 l 1
 226 10 l 1
421 311 m 1
 430 273 l 1
 29 180 l 1
 19 217 l 1
 421 311 l 1
EndSplineSet
Validated: 1
EndChar

StartChar: questiondown
Encoding: 191 191 124
Width: 450
GlyphClass: 1
Flags: HW
LayerCount: 2
Fore
SplineSet
249 444 m 0
 219 444 194 468 194 498 c 0
 194 528 219 552 249 552 c 0
 279 552 304 528 304 498 c 0
 304 468 279 444 249 444 c 0
241 49 m 0
 308 49 375 98 375 98 c 1
 375 30 l 1
 375 30 316 -9 239 -9 c 0
 120 -9 75 45 75 114 c 0
 75 219 208 245 208 317 c 2
 208 388 l 1
 281 388 l 1
 281 325 l 2
 281 217 151 198 151 118 c 0
 151 77 184 49 241 49 c 0
EndSplineSet
Validated: 1
EndChar

StartChar: Agrave
Encoding: 192 192 125
Width: 450
GlyphClass: 1
Flags: HW
LayerCount: 2
Fore
SplineSet
272 531 m 1
 444 0 l 1
 365 0 l 1
 324 139 l 1
 126 139 l 1
 85 0 l 1
 6 0 l 1
 179 531 l 1
 272 531 l 1
145 196 m 1
 306 196 l 1
 225 468 l 1
 145 196 l 1
272 563 m 1
 214 563 l 1
 128 658 l 1
 197 658 l 1
 272 563 l 1
EndSplineSet
Validated: 1
EndChar

StartChar: Aacute
Encoding: 193 193 126
Width: 450
GlyphClass: 1
Flags: HW
LayerCount: 2
Fore
SplineSet
272 531 m 1
 444 0 l 1
 365 0 l 1
 324 139 l 1
 127 139 l 1
 85 0 l 1
 6 0 l 1
 179 531 l 1
 272 531 l 1
145 196 m 1
 306 196 l 1
 225 468 l 1
 145 196 l 1
323 658 m 1
 237 563 l 1
 179 563 l 1
 253 658 l 1
 323 658 l 1
EndSplineSet
Validated: 1
EndChar

StartChar: Acircumflex
Encoding: 194 194 127
Width: 450
GlyphClass: 1
Flags: HW
LayerCount: 2
Fore
SplineSet
272 529 m 1
 444 -1 l 1
 365 -1 l 1
 324 138 l 1
 127 138 l 1
 85 -1 l 1
 6 -1 l 1
 179 529 l 1
 272 529 l 1
145 195 m 1
 306 195 l 1
 225 467 l 1
 145 195 l 1
226 627 m 1
 163 564 l 1
 110 564 l 1
 190 658 l 1
 261 658 l 1
 341 564 l 1
 288 564 l 1
 226 627 l 1
EndSplineSet
Validated: 1
EndChar

StartChar: Atilde
Encoding: 195 195 128
Width: 450
GlyphClass: 1
Flags: HW
LayerCount: 2
Fore
SplineSet
272 529 m 1
 444 -1 l 1
 365 -1 l 1
 324 138 l 1
 127 138 l 1
 85 -1 l 1
 6 -1 l 1
 179 529 l 1
 272 529 l 1
145 195 m 1
 306 195 l 1
 225 467 l 1
 145 195 l 1
173 608 m 0
 157 608 148 592 148 571 c 1
 100 571 l 1
 100 614 122 649 172 649 c 0
 220 649 243 615 277 615 c 0
 303 615 303 649 303 649 c 1
 350 649 l 1
 350 623 334 571 279 571 c 0
 225 571 211 608 173 608 c 0
EndSplineSet
Validated: 1
EndChar

StartChar: Adieresis
Encoding: 196 196 129
Width: 450
GlyphClass: 1
Flags: HW
LayerCount: 2
Fore
SplineSet
180 589 m 6
 121 589 l 6
 116 589 112 593 112 598 c 6
 112 651 l 6
 112 656 116 660 121 660 c 6
 180 660 l 6
 185 660 189 656 189 651 c 6
 189 598 l 6
 189 593 185 589 180 589 c 6
330 589 m 6
 271 589 l 6
 266 589 262 593 262 598 c 6
 262 651 l 6
 262 656 266 660 271 660 c 6
 330 660 l 6
 335 660 339 656 339 651 c 6
 339 598 l 6
 339 593 335 589 330 589 c 6
272 531 m 1
 444 0 l 1
 365 0 l 1
 324 139 l 1
 127 139 l 1
 85 -1 l 1
 6 0 l 1
 179 531 l 1
 272 531 l 1
145 196 m 1
 306 196 l 1
 225 468 l 1
 145 196 l 1
EndSplineSet
Validated: 1
EndChar

StartChar: Aring
Encoding: 197 197 130
Width: 450
GlyphClass: 1
Flags: HW
LayerCount: 2
Fore
SplineSet
282 498 m 1
 444 -1 l 1
 365 -1 l 1
 324 138 l 1
 127 138 l 1
 85 -1 l 1
 6 -1 l 1
 169 498 l 1
 141 515 121 545 121 579 c 0
 121 633 167 676 225 676 c 0
 283 676 329 633 329 579 c 0
 329 545 310 515 282 498 c 1
167 579 m 0
 167 557 182 537 203 529 c 1
 248 529 l 1
 269 537 283 557 283 579 c 0
 283 609 257 633 225 633 c 0
 193 633 167 609 167 579 c 0
145 195 m 1
 306 195 l 1
 225 467 l 1
 145 195 l 1
EndSplineSet
Validated: 1
EndChar

StartChar: AE
Encoding: 198 198 131
Width: 450
GlyphClass: 1
Flags: HW
LayerCount: 2
Fore
SplineSet
316 251 m 1
 316 59 l 1
 448 59 l 1
 448 -1 l 1
 240 -1 l 1
 240 136 l 1
 110 136 l 1
 72 0 l 1
 3 0 l 1
 157 530 l 1
 443 531 l 1
 441 469 l 1
 316 469 l 1
 317 312 l 1
 431 313 l 1
 430 251 l 1
 316 251 l 1
240 195 m 1
 240 470 l 1
 203 470 l 1
 126 196 l 1
 240 195 l 1
EndSplineSet
Validated: 1
EndChar

StartChar: Ccedilla
Encoding: 199 199 132
Width: 450
GlyphClass: 1
Flags: HW
LayerCount: 2
Fore
SplineSet
271 480 m 1
 271 480 l 1
 162 480 126 383 126 263 c 0
 126 143 163 46 271 46 c 0
 326 46 370 64 402 93 c 1
 402 18 l 1
 377 4 346 -5 307 -8 c 1
 321 -24 340 -50 340 -78 c 0
 340 -122 304 -140 255 -140 c 0
 227 -140 199 -136 183 -131 c 1
 183 -85 l 1
 200 -93 217 -97 240 -97 c 0
 263 -97 287 -90 287 -64 c 0
 287 -44 269 -20 260 -9 c 1
 109 -3 49 117 49 265 c 0
 49 417 122 540 271 540 c 0
 328 540 370 527 402 507 c 1
 402 434 l 1
 369 463 326 480 271 480 c 1
EndSplineSet
Validated: 1
EndChar

StartChar: Egrave
Encoding: 200 200 133
Width: 450
GlyphClass: 1
Flags: HW
LayerCount: 2
Fore
SplineSet
275 568 m 1
 217 568 l 1
 131 662 l 1
 201 662 l 1
 275 568 l 1
130 64 m 1
 396 64 l 1
 396 4 l 1
 54 4 l 1
 54 534 l 1
 389 534 l 1
 389 474 l 1
 130 474 l 1
 131 317 l 1
 378 317 l 1
 378 256 l 1
 130 256 l 1
 130 64 l 1
EndSplineSet
Validated: 1
EndChar

StartChar: Eacute
Encoding: 201 201 134
Width: 450
GlyphClass: 1
Flags: HW
LayerCount: 2
Fore
SplineSet
308 662 m 1
 222 568 l 1
 164 568 l 1
 238 662 l 1
 308 662 l 1
130 65 m 1
 396 65 l 1
 396 5 l 1
 54 5 l 1
 54 535 l 1
 389 535 l 1
 389 475 l 1
 130 475 l 1
 131 318 l 1
 378 318 l 1
 378 257 l 1
 130 257 l 1
 130 65 l 1
EndSplineSet
Validated: 1
EndChar

StartChar: Ecircumflex
Encoding: 202 202 135
Width: 450
GlyphClass: 1
Flags: HW
LayerCount: 2
Fore
SplineSet
218 632 m 1
 155 569 l 1
 103 569 l 1
 182 663 l 1
 254 663 l 1
 333 569 l 1
 281 569 l 1
 218 632 l 1
130 65 m 1
 396 65 l 1
 396 5 l 1
 54 5 l 1
 54 535 l 1
 389 535 l 1
 389 475 l 1
 130 475 l 1
 131 318 l 1
 378 318 l 1
 378 257 l 1
 130 257 l 1
 130 65 l 1
EndSplineSet
Validated: 1
EndChar

StartChar: Edieresis
Encoding: 203 203 136
Width: 450
GlyphClass: 1
Flags: HW
LayerCount: 2
Fore
SplineSet
130 60 m 1
 396 60 l 1
 396 0 l 1
 54 0 l 1
 54 531 l 1
 389 531 l 1
 389 470 l 1
 130 470 l 1
 131 313 l 1
 378 313 l 1
 378 253 l 1
 130 253 l 1
 130 60 l 1
180 588 m 2
 121 588 l 2
 116 588 112 592 112 597 c 2
 112 651 l 2
 112 656 116 660 121 660 c 2
 180 660 l 2
 185 660 189 656 189 651 c 2
 189 597 l 2
 189 592 185 588 180 588 c 2
330 588 m 2
 271 588 l 2
 266 588 262 592 262 597 c 2
 262 651 l 2
 262 656 266 660 271 660 c 2
 330 660 l 2
 335 660 339 656 339 651 c 2
 339 597 l 2
 339 592 335 588 330 588 c 2
EndSplineSet
Validated: 1
EndChar

StartChar: Igrave
Encoding: 204 204 137
Width: 450
GlyphClass: 1
Flags: HW
LayerCount: 2
Fore
SplineSet
274 563 m 1
 216 563 l 1
 130 658 l 1
 199 658 l 1
 274 563 l 1
382 469 m 1
 264 469 l 1
 264 58 l 1
 382 57 l 1
 382 -1 l 1
 68 -1 l 1
 68 59 l 1
 187 59 l 1
 187 469 l 1
 68 469 l 1
 68 529 l 1
 382 529 l 1
 382 469 l 1
EndSplineSet
Validated: 1
EndChar

StartChar: Iacute
Encoding: 205 205 138
Width: 450
GlyphClass: 1
Flags: HW
LayerCount: 2
Fore
SplineSet
321 662 m 1
 235 568 l 1
 177 568 l 1
 251 662 l 1
 321 662 l 1
382 474 m 1
 264 474 l 1
 264 64 l 1
 382 64 l 1
 382 4 l 1
 68 4 l 1
 68 62 l 1
 187 63 l 1
 187 473 l 1
 68 474 l 1
 68 534 l 1
 382 534 l 1
 382 474 l 1
EndSplineSet
Validated: 1
EndChar

StartChar: Icircumflex
Encoding: 206 206 139
Width: 450
GlyphClass: 1
Flags: HW
LayerCount: 2
Fore
SplineSet
230 632 m 1
 168 569 l 1
 115 569 l 1
 195 663 l 1
 266 663 l 1
 346 569 l 1
 293 569 l 1
 230 632 l 1
382 474 m 1
 264 474 l 1
 264 64 l 1
 382 64 l 1
 382 4 l 1
 68 4 l 1
 68 62 l 1
 187 63 l 1
 187 473 l 1
 68 474 l 1
 68 534 l 1
 382 534 l 1
 382 474 l 1
EndSplineSet
Validated: 1
EndChar

StartChar: Idieresis
Encoding: 207 207 140
Width: 450
GlyphClass: 1
Flags: HW
LayerCount: 2
Fore
SplineSet
382 469 m 1
 264 469 l 1
 264 59 l 1
 382 59 l 1
 382 -1 l 1
 68 -1 l 1
 68 57 l 1
 187 58 l 1
 187 469 l 1
 68 469 l 1
 68 529 l 1
 382 529 l 1
 382 469 l 1
180 587 m 2
 121 587 l 2
 116 587 112 591 112 596 c 2
 112 649 l 2
 112 654 116 658 121 658 c 2
 180 658 l 2
 185 658 189 654 189 649 c 2
 189 596 l 2
 189 591 185 587 180 587 c 2
330 587 m 2
 271 587 l 2
 266 587 262 591 262 596 c 2
 262 649 l 2
 262 654 266 658 271 658 c 2
 330 658 l 2
 335 658 339 654 339 649 c 2
 339 596 l 2
 339 591 335 587 330 587 c 2
EndSplineSet
Validated: 1
EndChar

StartChar: Eth
Encoding: 208 208 141
Width: 450
GlyphClass: 1
Flags: HW
LayerCount: 2
Fore
SplineSet
206 535 m 2
 300 535 433 493 433 270 c 0
 433 47 300 5 207 5 c 2
 64 5 l 1
 64 256 l 1
 18 256 l 1
 18 310 l 1
 64 310 l 1
 64 535 l 1
 206 535 l 2
205 64 m 2
 262 64 356 95 356 270 c 0
 356 445 263 476 205 476 c 2
 141 476 l 1
 141 310 l 1
 243 310 l 1
 243 256 l 1
 141 256 l 1
 141 64 l 1
 205 64 l 2
EndSplineSet
Validated: 1
EndChar

StartChar: Ntilde
Encoding: 209 209 142
Width: 450
GlyphClass: 1
Flags: HW
LayerCount: 2
Fore
SplineSet
334 531 m 1
 407 531 l 1
 407 0 l 1
 311 0 l 1
 120 432 l 1
 120 0 l 1
 47 0 l 1
 43 531 l 1
 143 531 l 1
 334 99 l 1
 334 531 l 1
173 615 m 0
 157 615 148 599 148 578 c 1
 100 578 l 1
 100 621 122 657 172 657 c 0
 220 657 243 622 277 622 c 0
 303 622 303 657 303 657 c 1
 350 657 l 1
 350 631 334 578 279 578 c 0
 225 578 211 615 173 615 c 0
EndSplineSet
Validated: 1
EndChar

StartChar: Ograve
Encoding: 210 210 143
Width: 450
GlyphClass: 1
Flags: HW
LayerCount: 2
Fore
SplineSet
281 568 m 1
 223 568 l 1
 137 662 l 1
 206 662 l 1
 281 568 l 1
225 542 m 0
 326 542 414 482 414 268 c 0
 414 54 324 -5 225 -5 c 0
 126 -5 37 54 37 268 c 0
 37 482 124 542 225 542 c 0
225 55 m 0
 272 55 335 74 335 268 c 0
 335 456 278 482 226 482 c 0
 174 482 115 456 115 268 c 0
 115 80 175 55 225 55 c 0
EndSplineSet
Validated: 1
EndChar

StartChar: Ocircumflex
Encoding: 212 212 144
Width: 450
GlyphClass: 1
Flags: HW
LayerCount: 2
Fore
SplineSet
225 632 m 1
 163 569 l 1
 110 569 l 1
 190 663 l 1
 261 663 l 1
 341 569 l 1
 288 569 l 1
 225 632 l 1
225 542 m 0
 326 542 414 482 414 268 c 0
 414 54 324 -5 225 -5 c 0
 126 -5 37 54 37 268 c 0
 37 482 124 542 225 542 c 0
225 55 m 0
 275 55 335 80 335 268 c 0
 335 456 277 482 225 482 c 0
 173 482 115 456 115 268 c 0
 115 80 175 55 225 55 c 0
EndSplineSet
Validated: 1
EndChar

StartChar: Otilde
Encoding: 213 213 145
Width: 450
GlyphClass: 1
Flags: HW
LayerCount: 2
Fore
SplineSet
225 542 m 0
 326 542 414 483 414 269 c 0
 414 55 324 -5 225 -5 c 0
 126 -5 37 55 37 269 c 0
 37 483 124 542 225 542 c 0
225 56 m 0
 272 56 336 75 336 269 c 0
 336 457 278 483 226 483 c 0
 174 483 115 457 115 269 c 0
 115 81 175 56 225 56 c 0
173 614 m 0
 157 614 148 598 148 577 c 1
 101 577 l 1
 101 620 123 656 173 656 c 0
 221 656 243 621 277 621 c 0
 303 621 303 656 303 656 c 1
 351 656 l 1
 351 630 334 577 279 577 c 0
 225 577 211 614 173 614 c 0
EndSplineSet
Validated: 1
EndChar

StartChar: Odieresis
Encoding: 214 214 146
Width: 450
GlyphClass: 1
Flags: HW
LayerCount: 2
Fore
SplineSet
180 589 m 6
 121 589 l 6
 116 589 112 593 112 598 c 6
 112 651 l 6
 112 656 116 660 121 660 c 6
 180 660 l 6
 185 660 189 656 189 651 c 6
 189 598 l 6
 189 593 185 589 180 589 c 6
330 589 m 6
 271 589 l 6
 266 589 262 593 262 598 c 6
 262 651 l 6
 262 656 266 660 271 660 c 6
 330 660 l 6
 335 660 339 656 339 651 c 6
 339 598 l 6
 339 593 335 589 330 589 c 6
225 542 m 0
 326 542 414 482 414 268 c 0
 414 54 324 -5 225 -5 c 0
 126 -5 37 54 37 268 c 0
 37 482 124 542 225 542 c 0
225 55 m 0
 272 55 335 74 335 268 c 0
 335 456 278 482 226 482 c 0
 174 482 115 456 115 268 c 0
 115 80 175 55 225 55 c 0
EndSplineSet
Validated: 1
EndChar

StartChar: multiply
Encoding: 215 215 147
Width: 450
GlyphClass: 1
Flags: HW
LayerCount: 2
Fore
SplineSet
402 358 m 1
 270 234 l 1
 402 110 l 1
 357 67 l 1
 225 192 l 1
 93 67 l 1
 48 110 l 1
 179 234 l 1
 48 358 l 1
 93 402 l 1
 225 277 l 1
 357 402 l 1
 402 358 l 1
EndSplineSet
Validated: 1
EndChar

StartChar: Oslash
Encoding: 216 216 148
Width: 450
GlyphClass: 1
Flags: HW
LayerCount: 2
Fore
SplineSet
449 532 m 1
 383 443 l 1
 402 402 414 345 414 268 c 0
 414 54 324 -5 225 -5 c 0
 175 -5 128 10 93 52 c 1
 38 -22 l 1
 1 4 l 1
 68 94 l 1
 49 135 37 191 37 268 c 0
 37 482 124 542 225 542 c 0
 276 542 323 526 358 484 c 1
 413 558 l 1
 449 532 l 1
115 268 m 0
 115 228 118 195 123 168 c 1
 312 423 l 1
 290 472 257 482 226 482 c 0
 174 482 115 456 115 268 c 0
226 55 m 0
 276 55 335 80 335 268 c 0
 335 309 333 341 328 368 c 1
 139 114 l 1
 161 65 196 55 226 55 c 0
EndSplineSet
Validated: 1
EndChar

StartChar: Ugrave
Encoding: 217 217 149
Width: 450
GlyphClass: 1
Flags: HW
LayerCount: 2
Fore
SplineSet
282 563 m 1
 224 563 l 1
 138 658 l 1
 207 658 l 1
 282 563 l 1
325 531 m 1
 403 531 l 1
 403 170 l 2
 403 84 374 -10 228 -10 c 0
 82 -10 48 84 48 183 c 2
 48 531 l 1
 125 531 l 1
 125 170 l 2
 125 82 141 48 227 48 c 0
 313 48 325 102 325 163 c 2
 325 531 l 1
EndSplineSet
Validated: 1
EndChar

StartChar: Uacute
Encoding: 218 218 150
Width: 450
GlyphClass: 1
Flags: HW
LayerCount: 2
Fore
SplineSet
313 658 m 1
 227 563 l 1
 169 563 l 1
 243 658 l 1
 313 658 l 1
325 531 m 1
 403 531 l 1
 403 170 l 2
 403 84 374 -10 228 -10 c 0
 82 -10 48 84 48 183 c 2
 48 531 l 1
 125 531 l 1
 125 170 l 2
 125 82 141 48 227 48 c 0
 313 48 325 102 325 163 c 2
 325 531 l 1
EndSplineSet
Validated: 1
EndChar

StartChar: Ucircumflex
Encoding: 219 219 151
Width: 450
GlyphClass: 1
Flags: HW
LayerCount: 2
Fore
SplineSet
225 627 m 1
 163 564 l 1
 110 564 l 1
 190 658 l 1
 261 658 l 1
 341 564 l 1
 288 564 l 1
 225 627 l 1
325 531 m 1
 403 531 l 1
 403 170 l 2
 403 84 374 -10 228 -10 c 0
 82 -10 48 84 48 183 c 2
 48 531 l 1
 125 531 l 1
 125 170 l 2
 125 82 141 48 227 48 c 0
 313 48 325 102 325 163 c 2
 325 531 l 1
EndSplineSet
Validated: 1
EndChar

StartChar: Udieresis
Encoding: 220 220 152
Width: 450
GlyphClass: 1
Flags: HW
LayerCount: 2
Fore
SplineSet
181 589 m 6
 122 589 l 6
 117 589 113 593 113 598 c 6
 113 651 l 6
 113 656 117 660 122 660 c 6
 181 660 l 6
 186 660 190 656 190 651 c 6
 190 598 l 6
 190 593 186 589 181 589 c 6
331 589 m 6
 272 589 l 6
 267 589 263 593 263 598 c 6
 263 651 l 6
 263 656 267 660 272 660 c 6
 331 660 l 6
 336 660 340 656 340 651 c 6
 340 598 l 6
 340 593 336 589 331 589 c 6
326 531 m 1
 403 531 l 1
 403 170 l 2
 403 84 374 -10 228 -10 c 0
 82 -10 48 84 48 183 c 2
 48 531 l 1
 125 531 l 1
 125 170 l 2
 125 82 142 48 228 48 c 0
 314 48 326 102 326 163 c 2
 326 531 l 1
EndSplineSet
Validated: 1
EndChar

StartChar: Yacute
Encoding: 221 221 153
Width: 450
GlyphClass: 1
Flags: HW
LayerCount: 2
Fore
SplineSet
317 657 m 1
 231 563 l 1
 173 563 l 1
 247 657 l 1
 317 657 l 1
362 530 m 1
 444 530 l 1
 263 238 l 1
 263 -0 l 1
 187 -0 l 1
 187 239 l 1
 6 530 l 1
 87 530 l 1
 225 296 l 1
 362 530 l 1
EndSplineSet
Validated: 1
EndChar

StartChar: Thorn
Encoding: 222 222 154
Width: 450
GlyphClass: 1
Flags: HW
LayerCount: 2
Fore
SplineSet
225 436 m 2
 335 436 407 388 407 283 c 0
 407 178 342 131 225 131 c 2
 120 131 l 1
 120 -0 l 1
 43 -0 l 1
 43 530 l 1
 120 530 l 1
 120 436 l 1
 225 436 l 2
215 191 m 2
 276 191 328 213 328 283 c 0
 328 353 272 375 215 375 c 2
 120 375 l 1
 120 191 l 1
 215 191 l 2
EndSplineSet
Validated: 1
EndChar

StartChar: germandbls
Encoding: 223 223 155
Width: 450
GlyphClass: 1
Flags: HW
LayerCount: 2
Fore
SplineSet
240 313 m 0
 240 237 407 238 407 108 c 0
 407 23 330 -12 248 -12 c 0
 213 -12 177 -5 146 7 c 1
 146 65 l 1
 146 65 195 43 247 43 c 0
 305 43 336 72 336 110 c 0
 336 200 172 190 172 302 c 0
 172 404 292 420 292 420 c 1
 292 424 l 2
 292 441 286 498 203 498 c 0
 138 498 114 465 114 398 c 2
 114 -0 l 1
 44 -0 l 1
 44 398 l 2
 44 502 89 553 203 553 c 0
 317 553 362 493 362 398 c 1
 302 398 240 368 240 313 c 0
EndSplineSet
Validated: 1
EndChar

StartChar: agrave
Encoding: 224 224 156
Width: 450
GlyphClass: 1
Flags: HW
LayerCount: 2
Fore
SplineSet
392 232 m 2
 392 113 l 2
 392 56 412 0 412 0 c 1
 342 0 l 1
 342 0 333 23 326 61 c 1
 297 15 236 -10 187 -10 c 0
 101 -10 39 33 39 117 c 0
 39 200 98 252 225 252 c 2
 319 252 l 1
 319 269 l 2
 319 300 311 353 218 353 c 0
 131 353 73 315 73 315 c 1
 73 379 l 1
 111 392 152 410 219 410 c 0
 317 410 392 368 392 232 c 2
259 200 m 2
 161 200 108 193 108 119 c 0
 108 63 157 44 193 44 c 0
 292 44 320 126 320 190 c 2
 320 200 l 1
 259 200 l 2
274 461 m 1
 216 461 l 1
 95 595 l 1
 169 595 l 1
 274 461 l 1
EndSplineSet
Validated: 1
EndChar

StartChar: aacute
Encoding: 225 225 157
Width: 450
GlyphClass: 1
Flags: HW
LayerCount: 2
Fore
SplineSet
392 232 m 2
 392 113 l 2
 392 56 412 0 412 0 c 1
 342 0 l 1
 342 0 333 23 326 61 c 1
 297 15 236 -10 187 -10 c 0
 101 -10 39 33 39 117 c 0
 39 200 98 252 225 252 c 2
 319 252 l 1
 319 269 l 2
 319 300 311 353 218 353 c 0
 131 353 73 315 73 315 c 1
 73 379 l 1
 111 392 152 410 219 410 c 0
 317 410 392 368 392 232 c 2
193 44 m 0
 292 44 320 126 320 190 c 2
 320 200 l 1
 223 200 l 1
 147 197 108 183 108 119 c 0
 108 63 157 44 193 44 c 0
348 595 m 1
 227 461 l 1
 169 461 l 1
 274 595 l 1
 348 595 l 1
EndSplineSet
Validated: 1
EndChar

StartChar: acircumflex
Encoding: 226 226 158
Width: 450
GlyphClass: 1
Flags: HW
LayerCount: 2
Fore
SplineSet
392 232 m 2
 392 113 l 2
 392 56 412 0 412 0 c 1
 342 0 l 1
 342 0 333 23 326 61 c 1
 297 15 236 -10 187 -10 c 0
 101 -10 39 33 39 117 c 0
 39 200 98 252 225 252 c 2
 319 252 l 1
 319 269 l 2
 319 300 311 353 218 353 c 0
 131 353 73 315 73 315 c 1
 73 379 l 1
 111 392 152 410 219 410 c 0
 317 410 392 368 392 232 c 2
259 200 m 2
 161 200 108 193 108 119 c 0
 108 63 157 44 193 44 c 0
 292 44 320 126 320 190 c 2
 320 200 l 1
 259 200 l 2
225 551 m 1
 157 461 l 1
 104 461 l 1
 196 595 l 1
 254 595 l 1
 346 461 l 1
 293 461 l 1
 225 551 l 1
EndSplineSet
Validated: 1
EndChar

StartChar: atilde
Encoding: 227 227 159
Width: 450
GlyphClass: 1
Flags: HW
LayerCount: 2
Fore
SplineSet
392 232 m 2
 392 113 l 2
 392 56 412 0 412 0 c 1
 342 0 l 1
 342 0 333 23 326 61 c 1
 297 15 236 -10 187 -10 c 0
 101 -10 39 33 39 117 c 0
 39 200 98 252 225 252 c 2
 319 252 l 1
 319 269 l 2
 319 300 311 353 218 353 c 0
 131 353 73 315 73 315 c 1
 73 379 l 1
 111 392 152 410 219 410 c 0
 317 410 392 368 392 232 c 2
259 200 m 2
 161 200 108 193 108 119 c 0
 108 63 157 44 193 44 c 0
 292 44 320 126 320 190 c 2
 320 200 l 1
 259 200 l 2
275 476 m 0
 215 476 207 531 171 532 c 0
 150 532 145 503 145 476 c 1
 98 476 l 1
 98 530 118 576 173 576 c 0
 222 576 240 522 274 522 c 0
 297 522 299 559 299 572 c 2
 299 576 l 1
 347 576 l 1
 347 543 336 476 275 476 c 0
EndSplineSet
Validated: 1
EndChar

StartChar: adieresis
Encoding: 228 228 160
Width: 450
GlyphClass: 1
Flags: HW
LayerCount: 2
Fore
SplineSet
392 232 m 2
 392 113 l 2
 392 56 412 0 412 0 c 1
 342 0 l 1
 342 0 333 23 326 61 c 1
 297 15 236 -10 187 -10 c 0
 101 -10 39 33 39 117 c 0
 39 200 98 252 225 252 c 2
 319 252 l 1
 319 269 l 2
 319 300 311 353 218 353 c 0
 131 353 73 315 73 315 c 1
 73 379 l 1
 111 392 152 410 219 410 c 0
 317 410 392 368 392 232 c 2
259 200 m 2
 161 200 108 193 108 119 c 0
 108 63 157 44 193 44 c 0
 292 44 320 126 320 190 c 2
 320 200 l 1
 259 200 l 2
177 482 m 2
 118 482 l 2
 113 482 109 486 109 491 c 2
 109 544 l 2
 109 549 113 553 118 553 c 2
 177 553 l 2
 182 553 186 549 186 544 c 2
 186 491 l 2
 186 486 182 482 177 482 c 2
327 482 m 2
 268 482 l 2
 263 482 258 486 258 491 c 2
 258 544 l 2
 258 549 263 553 268 553 c 2
 327 553 l 2
 332 553 336 549 336 544 c 2
 336 491 l 2
 336 486 332 482 327 482 c 2
EndSplineSet
Validated: 1
EndChar

StartChar: aring
Encoding: 229 229 161
Width: 450
GlyphClass: 1
Flags: HW
LayerCount: 2
Fore
SplineSet
392 232 m 2
 392 113 l 2
 392 56 412 0 412 0 c 1
 342 0 l 1
 342 0 333 23 326 61 c 1
 297 15 236 -10 187 -10 c 0
 101 -10 39 33 39 117 c 0
 39 200 98 252 225 252 c 2
 319 252 l 1
 319 269 l 2
 319 300 311 353 218 353 c 0
 131 353 73 315 73 315 c 1
 73 379 l 1
 111 392 152 410 219 410 c 0
 317 410 392 368 392 232 c 2
259 200 m 2
 161 200 108 193 108 119 c 0
 108 63 157 44 193 44 c 0
 292 44 319 126 319 190 c 2
 319 200 l 1
 259 200 l 2
222 443 m 0
 164 443 118 488 118 542 c 0
 118 596 164 640 222 640 c 0
 280 640 326 596 326 542 c 0
 326 488 280 443 222 443 c 0
222 596 m 0
 190 596 165 572 165 542 c 0
 165 512 190 488 222 488 c 0
 254 488 279 512 279 542 c 0
 279 572 254 596 222 596 c 0
EndSplineSet
Validated: 1
EndChar

StartChar: ae
Encoding: 230 230 162
Width: 450
GlyphClass: 1
Flags: HW
LayerCount: 2
Fore
SplineSet
324 407 m 0
 404 407 444 376 444 196 c 2
 444 183 l 1
 258 183 l 1
 258 160 l 2
 258 113 263 47 329 45 c 1
 335 45 l 2
 408 45 436 80 436 80 c 1
 436 19 l 1
 436 19 398 -10 341 -10 c 0
 249 -10 228 46 228 46 c 1
 228 46 205 -10 126 -10 c 0
 47 -10 6 31 6 108 c 0
 6 185 52 233 147 233 c 2
 199 233 l 1
 199 263 l 2
 199 337 158 353 125 353 c 0
 81 353 31 324 31 324 c 1
 31 383 l 1
 31 383 76 408 143 408 c 0
 210 408 228 362 228 362 c 1
 228 362 243 407 324 407 c 0
129 44 m 0
 185 44 196 73 196 166 c 2
 196 183 l 1
 167 183 l 2
 95 183 68 164 68 112 c 0
 68 60 103 44 129 44 c 0
383 234 m 1
 383 251 l 2
 383 353 339 354 320 354 c 0
 276 354 260 317 259 261 c 1
 259 234 l 1
 383 234 l 1
EndSplineSet
Validated: 1
EndChar

StartChar: ccedilla
Encoding: 231 231 163
Width: 450
GlyphClass: 1
Flags: HW
LayerCount: 2
Fore
SplineSet
275 352 m 1
 275 352 l 1
 190 352 135 305 135 198 c 0
 135 91 190 45 275 45 c 0
 317 45 358 62 389 89 c 1
 389 22 l 1
 356 -3 300 -8 300 -8 c 1
 314 -24 334 -50 334 -78 c 0
 334 -122 298 -140 249 -140 c 0
 221 -140 193 -137 177 -132 c 1
 177 -85 l 1
 194 -93 211 -97 234 -97 c 0
 257 -97 281 -90 281 -64 c 0
 281 -44 263 -21 254 -10 c 1
 147 -7 61 61 61 198 c 0
 61 337 151 407 261 407 c 0
 310 407 354 399 389 375 c 1
 389 308 l 1
 358 335 317 352 275 352 c 1
EndSplineSet
Validated: 1
EndChar

StartChar: egrave
Encoding: 232 232 164
Width: 450
GlyphClass: 1
Flags: HW
LayerCount: 2
Fore
SplineSet
111 184 m 1
 111 118 143 46 243 46 c 0
 305 46 343 62 396 86 c 1
 396 21 l 1
 350 2 305 -9 240 -9 c 0
 121 -9 38 67 38 199 c 0
 38 331 122 408 226 408 c 0
 360 408 411 323 411 233 c 0
 411 221 412 184 412 184 c 1
 111 184 l 1
233 353 m 0
 170 353 114 300 114 234 c 1
 343 234 l 1
 343 312 308 353 233 353 c 0
281 461 m 1
 223 461 l 1
 102 595 l 1
 176 595 l 1
 281 461 l 1
EndSplineSet
Validated: 1
EndChar

StartChar: eacute
Encoding: 233 233 165
Width: 450
GlyphClass: 1
Flags: HW
LayerCount: 2
Fore
SplineSet
111 184 m 1
 111 118 143 46 243 46 c 0
 305 46 343 62 396 86 c 1
 396 21 l 1
 350 2 305 -9 240 -9 c 0
 121 -9 38 67 38 199 c 0
 38 331 122 408 226 408 c 0
 360 408 411 323 411 233 c 0
 411 221 412 184 412 184 c 1
 111 184 l 1
233 353 m 0
 170 353 114 300 114 234 c 1
 343 234 l 1
 343 312 308 353 233 353 c 0
357 595 m 1
 236 461 l 1
 178 461 l 1
 283 595 l 1
 357 595 l 1
EndSplineSet
Validated: 1
EndChar

StartChar: ecircumflex
Encoding: 234 234 166
Width: 450
GlyphClass: 1
Flags: HW
LayerCount: 2
Fore
SplineSet
111 184 m 1
 111 118 143 46 243 46 c 0
 305 46 343 62 396 86 c 1
 396 21 l 1
 350 2 305 -9 240 -9 c 0
 121 -9 38 67 38 199 c 0
 38 331 122 408 226 408 c 0
 360 408 411 323 411 233 c 0
 411 221 412 184 412 184 c 1
 111 184 l 1
233 353 m 0
 170 353 114 300 114 234 c 1
 343 234 l 1
 343 312 308 353 233 353 c 0
230 551 m 1
 162 461 l 1
 109 461 l 1
 201 595 l 1
 259 595 l 1
 351 461 l 1
 298 461 l 1
 230 551 l 1
EndSplineSet
Validated: 1
EndChar

StartChar: edieresis
Encoding: 235 235 167
Width: 450
GlyphClass: 1
Flags: HW
LayerCount: 2
Fore
SplineSet
111 184 m 1
 111 118 143 46 243 46 c 0
 305 46 343 62 396 86 c 1
 396 21 l 1
 350 2 305 -9 240 -9 c 0
 121 -9 38 67 38 199 c 0
 38 331 122 408 226 408 c 0
 360 408 411 323 411 233 c 0
 411 221 412 184 412 184 c 1
 111 184 l 1
233 353 m 0
 170 353 114 300 114 234 c 1
 343 234 l 1
 343 312 308 353 233 353 c 0
183 482 m 2
 124 482 l 2
 119 482 115 486 115 491 c 2
 115 544 l 2
 115 549 119 553 124 553 c 2
 183 553 l 2
 188 553 192 549 192 544 c 2
 192 491 l 2
 192 486 188 482 183 482 c 2
333 482 m 2
 274 482 l 2
 269 482 265 486 265 491 c 2
 265 544 l 2
 265 549 269 553 274 553 c 2
 333 553 l 2
 338 553 342 549 342 544 c 2
 342 491 l 2
 342 486 338 482 333 482 c 2
EndSplineSet
Validated: 1
EndChar

StartChar: igrave
Encoding: 236 236 168
Width: 450
GlyphClass: 1
Flags: HW
LayerCount: 2
Fore
SplineSet
232 450 m 1
 174 450 l 1
 53 584 l 1
 127 584 l 1
 232 450 l 1
300 53 m 2
 381 53 l 1
 381 -3 l 1
 285 -3 l 2
 212 -3 162 55 162 142 c 2
 162 347 l 1
 70 347 l 1
 70 398 l 1
 232 398 l 1
 232 142 l 2
 232 82 256 53 300 53 c 2
EndSplineSet
Validated: 1
EndChar

StartChar: iacute
Encoding: 237 237 169
Width: 450
GlyphClass: 1
Flags: HW
LayerCount: 2
Fore
SplineSet
340 584 m 1
 218 450 l 1
 160 450 l 1
 265 584 l 1
 340 584 l 1
300 53 m 2
 381 53 l 1
 381 -3 l 1
 284 -3 l 2
 211 -3 162 55 162 142 c 2
 162 347 l 1
 70 347 l 1
 70 398 l 1
 231 398 l 1
 231 142 l 2
 231 82 256 53 300 53 c 2
EndSplineSet
Validated: 1
EndChar

StartChar: icircumflex
Encoding: 238 238 170
Width: 450
GlyphClass: 1
Flags: HW
LayerCount: 2
Fore
SplineSet
300 53 m 2
 381 53 l 1
 381 -3 l 1
 284 -3 l 2
 211 -3 162 55 162 142 c 2
 162 347 l 1
 70 347 l 1
 70 398 l 1
 231 398 l 1
 231 142 l 2
 231 82 256 53 300 53 c 2
191 551 m 1
 123 461 l 1
 70 461 l 1
 162 595 l 1
 220 595 l 1
 312 461 l 1
 259 461 l 1
 191 551 l 1
EndSplineSet
Validated: 1
EndChar

StartChar: idieresis
Encoding: 239 239 171
Width: 450
GlyphClass: 1
Flags: HW
LayerCount: 2
Fore
SplineSet
300 53 m 2
 381 53 l 1
 381 -3 l 1
 284 -3 l 2
 211 -3 162 55 162 142 c 2
 162 347 l 1
 70 347 l 1
 70 398 l 1
 231 398 l 1
 231 142 l 2
 231 82 256 53 300 53 c 2
158 479 m 2
 99 479 l 2
 94 479 90 483 90 488 c 2
 90 542 l 2
 90 547 94 551 99 551 c 2
 158 551 l 2
 163 551 167 547 167 542 c 2
 167 488 l 2
 167 483 163 479 158 479 c 2
308 479 m 2
 249 479 l 2
 244 479 240 483 240 488 c 2
 240 542 l 2
 240 547 244 551 249 551 c 2
 308 551 l 2
 313 551 317 547 317 542 c 2
 317 488 l 2
 317 483 313 479 308 479 c 2
EndSplineSet
Validated: 1
EndChar

StartChar: eth
Encoding: 240 240 172
Width: 450
GlyphClass: 1
Flags: HW
LayerCount: 2
Fore
SplineSet
327 397 m 0
 354 358 407 296 407 186 c 0
 407 76 350 -12 225 -12 c 0
 100 -12 44 72 44 195 c 0
 44 311 108 387 232 387 c 0
 240 387 248 387 256 386 c 1
 245 403 201 450 201 450 c 1
 96 417 l 1
 84 452 l 1
 174 480 l 1
 105 551 l 1
 188 551 l 1
 236 500 l 1
 346 534 l 1
 358 499 l 1
 263 470 l 1
 263 470 300 436 327 397 c 0
225 43 m 1
 225 44 l 1
 281 44 333 85 333 188 c 0
 333 276 292 325 292 325 c 1
 292 325 274 334 222 334 c 0
 170 334 118 295 118 188 c 0
 118 81 169 43 225 43 c 1
EndSplineSet
Validated: 1
EndChar

StartChar: ntilde
Encoding: 241 241 173
Width: 450
GlyphClass: 1
Flags: HW
LayerCount: 2
Fore
SplineSet
174 512 m 0
 153 512 148 484 148 457 c 1
 101 457 l 1
 101 511 121 557 176 557 c 0
 225 557 243 503 277 503 c 0
 300 503 302 540 302 553 c 2
 302 557 l 1
 350 557 l 1
 350 524 339 457 278 457 c 0
 217 457 211 512 174 512 c 0
260 411 m 0
 329 411 387 357 387 262 c 2
 387 0 l 1
 318 0 l 1
 318 256 l 2
 318 318 290 351 239 351 c 0
 177 351 134 311 134 228 c 2
 134 0 l 1
 64 0 l 1
 64 398 l 1
 129 398 l 1
 134 349 l 1
 156 384 194 411 260 411 c 0
EndSplineSet
Validated: 1
EndChar

StartChar: ograve
Encoding: 242 242 174
Width: 450
GlyphClass: 1
Flags: HW
LayerCount: 2
Fore
SplineSet
225 407 m 0
 334 407 407 342 407 198 c 0
 407 54 340 -11 225 -11 c 0
 110 -11 44 54 44 198 c 0
 44 342 116 407 225 407 c 0
225 43 m 0
 282 43 332 81 332 198 c 0
 332 315 278 351 225 351 c 0
 172 351 119 315 119 198 c 0
 119 81 168 43 225 43 c 0
278 461 m 1
 220 461 l 1
 98 595 l 1
 173 595 l 1
 278 461 l 1
EndSplineSet
Validated: 1
EndChar

StartChar: oacute
Encoding: 243 243 175
Width: 450
GlyphClass: 1
Flags: HW
LayerCount: 2
Fore
SplineSet
225 407 m 0
 334 407 407 342 407 198 c 0
 407 54 340 -11 225 -11 c 0
 110 -11 44 54 44 198 c 0
 44 342 116 407 225 407 c 0
225 43 m 0
 282 43 332 81 332 198 c 0
 332 315 278 351 225 351 c 0
 172 351 119 315 119 198 c 0
 119 81 168 43 225 43 c 0
351 595 m 1
 229 461 l 1
 171 461 l 1
 276 595 l 1
 351 595 l 1
EndSplineSet
Validated: 1
EndChar

StartChar: ocircumflex
Encoding: 244 244 176
Width: 450
GlyphClass: 1
Flags: HW
LayerCount: 2
Fore
SplineSet
225 407 m 0
 334 407 407 342 407 198 c 0
 407 54 340 -11 225 -11 c 0
 110 -11 44 54 44 198 c 0
 44 342 116 407 225 407 c 0
225 43 m 0
 282 43 332 81 332 198 c 0
 332 315 278 351 225 351 c 0
 172 351 119 315 119 198 c 0
 119 81 168 43 225 43 c 0
225 551 m 1
 157 461 l 1
 104 461 l 1
 196 595 l 1
 254 595 l 1
 346 461 l 1
 293 461 l 1
 225 551 l 1
EndSplineSet
Validated: 1
EndChar

StartChar: otilde
Encoding: 245 245 177
Width: 450
GlyphClass: 1
Flags: HW
LayerCount: 2
Fore
SplineSet
225 407 m 0
 334 407 407 342 407 198 c 0
 407 54 340 -11 225 -11 c 0
 110 -11 44 54 44 198 c 0
 44 342 116 407 225 407 c 0
225 43 m 0
 282 43 332 81 332 198 c 0
 332 315 278 351 225 351 c 0
 172 351 119 315 119 198 c 0
 119 81 168 43 225 43 c 0
173 512 m 0
 152 512 147 484 147 457 c 1
 101 457 l 1
 101 511 121 557 176 557 c 0
 225 557 242 503 276 503 c 0
 300 503 302 544 302 555 c 2
 302 557 l 1
 349 557 l 1
 349 524 339 457 278 457 c 0
 217 457 210 512 173 512 c 0
EndSplineSet
Validated: 1
EndChar

StartChar: odieresis
Encoding: 246 246 178
Width: 450
GlyphClass: 1
Flags: HW
LayerCount: 2
Fore
SplineSet
225 407 m 0
 334 407 407 342 407 198 c 0
 407 54 340 -11 225 -11 c 0
 110 -11 44 54 44 198 c 0
 44 342 116 407 225 407 c 0
225 43 m 0
 282 43 332 81 332 198 c 0
 332 315 278 351 225 351 c 0
 172 351 119 315 119 198 c 0
 119 81 168 43 225 43 c 0
180 479 m 2
 121 479 l 2
 116 479 112 483 112 488 c 2
 112 542 l 2
 112 547 116 551 121 551 c 2
 180 551 l 2
 185 551 189 547 189 542 c 2
 189 488 l 2
 189 483 185 479 180 479 c 2
330 479 m 2
 271 479 l 2
 266 479 262 483 262 488 c 2
 262 542 l 2
 262 547 266 551 271 551 c 2
 330 551 l 2
 335 551 339 547 339 542 c 2
 339 488 l 2
 339 483 335 479 330 479 c 2
EndSplineSet
Validated: 1
EndChar

StartChar: divide
Encoding: 247 247 179
Width: 450
GlyphClass: 1
Flags: HW
LayerCount: 2
Fore
SplineSet
260 51 m 2
 188 51 l 2
 182 51 177 56 177 62 c 2
 177 127 l 2
 177 133 182 138 188 138 c 2
 260 138 l 2
 266 138 271 133 271 127 c 2
 271 62 l 2
 271 56 266 51 260 51 c 2
260 314 m 2
 188 314 l 2
 182 314 177 319 177 325 c 2
 177 390 l 2
 177 396 182 401 188 401 c 2
 260 401 l 2
 266 401 271 396 271 390 c 2
 271 325 l 2
 271 319 266 314 260 314 c 2
425 197 m 1
 25 197 l 1
 25 257 l 1
 425 257 l 1
 425 197 l 1
EndSplineSet
Validated: 1
EndChar

StartChar: oslash
Encoding: 248 248 180
Width: 450
GlyphClass: 1
Flags: HW
LayerCount: 2
Fore
SplineSet
438 404 m 1
 376 334 l 1
 397 301 409 257 409 199 c 0
 409 55 342 -10 227 -10 c 0
 176 -10 135 4 105 31 c 1
 47 -34 l 1
 12 -7 l 1
 76 65 l 1
 56 98 46 142 46 199 c 0
 46 343 118 408 228 408 c 0
 276 408 316 394 347 368 c 1
 403 432 l 1
 438 404 l 1
121 199 m 0
 121 169 124 145 130 125 c 1
 302 318 l 1
 282 343 255 352 228 352 c 0
 174 352 121 316 121 199 c 0
228 44 m 0
 285 44 334 82 334 199 c 0
 334 230 330 256 324 276 c 1
 150 81 l 1
 170 54 198 44 228 44 c 0
EndSplineSet
Validated: 1
EndChar

StartChar: ugrave
Encoding: 249 249 181
Width: 450
GlyphClass: 1
Flags: HW
LayerCount: 2
Fore
SplineSet
317 398 m 1
 387 398 l 1
 387 1 l 1
 322 1 l 1
 316 60 l 1
 316 60 281 -10 205 -10 c 0
 98 -10 63 39 63 149 c 2
 63 398 l 1
 132 398 l 1
 132 152 l 2
 132 83 155 47 215 47 c 0
 275 47 314 88 314 158 c 0
 314 262 317 398 317 398 c 1
275 451 m 1
 217 451 l 1
 95 585 l 1
 170 585 l 1
 275 451 l 1
EndSplineSet
Validated: 1
EndChar

StartChar: uacute
Encoding: 250 250 182
Width: 450
GlyphClass: 1
Flags: HW
LayerCount: 2
Fore
SplineSet
317 398 m 1
 387 398 l 1
 387 1 l 1
 322 1 l 1
 316 60 l 1
 316 60 281 -10 205 -10 c 0
 98 -10 63 39 63 149 c 2
 63 398 l 1
 132 398 l 1
 132 152 l 2
 132 83 155 47 215 47 c 0
 275 47 314 88 314 158 c 0
 314 262 317 398 317 398 c 1
347 585 m 1
 226 451 l 1
 168 451 l 1
 273 585 l 1
 347 585 l 1
EndSplineSet
Validated: 1
EndChar

StartChar: ucircumflex
Encoding: 251 251 183
Width: 450
GlyphClass: 1
Flags: HW
LayerCount: 2
Fore
SplineSet
387 398 m 1
 387 1 l 1
 322 1 l 1
 316 60 l 1
 316 60 281 -10 205 -10 c 0
 98 -10 63 39 63 149 c 2
 63 398 l 1
 132 398 l 1
 132 152 l 2
 132 83 154 47 214 47 c 0
 274 47 314 88 314 158 c 0
 314 262 317 398 317 398 c 1
 387 398 l 1
225 551 m 1
 157 461 l 1
 104 461 l 1
 196 595 l 1
 254 595 l 1
 346 461 l 1
 293 461 l 1
 225 551 l 1
EndSplineSet
Validated: 1
EndChar

StartChar: udieresis
Encoding: 252 252 184
Width: 450
GlyphClass: 1
Flags: HW
LayerCount: 2
Fore
SplineSet
317 398 m 1
 387 398 l 1
 387 1 l 1
 322 1 l 1
 316 60 l 1
 316 60 281 -10 205 -10 c 0
 98 -10 63 39 63 149 c 2
 63 398 l 1
 132 398 l 1
 132 152 l 2
 132 83 154 47 214 47 c 0
 274 47 314 88 314 158 c 0
 314 262 317 398 317 398 c 1
177 480 m 2
 118 480 l 2
 113 480 109 484 109 489 c 2
 109 543 l 2
 109 548 113 552 118 552 c 2
 177 552 l 2
 182 552 186 548 186 543 c 2
 186 489 l 2
 186 484 182 480 177 480 c 2
327 480 m 2
 268 480 l 2
 263 480 259 484 259 489 c 2
 259 543 l 2
 259 548 263 552 268 552 c 2
 327 552 l 2
 332 552 336 548 336 543 c 2
 336 489 l 2
 336 484 332 480 327 480 c 2
EndSplineSet
Validated: 1
EndChar

StartChar: yacute
Encoding: 253 253 185
Width: 450
GlyphClass: 1
Flags: HW
LayerCount: 2
Fore
SplineSet
334 585 m 1
 212 451 l 1
 154 451 l 1
 259 585 l 1
 334 585 l 1
350 398 m 1
 424 398 l 1
 424 398 280 53 240 -47 c 0
 200 -147 151 -152 113 -152 c 2
 57 -152 l 1
 57 -97 l 1
 57 -97 74 -96 104 -96 c 0
 146 -96 164 -56 178 -23 c 0
 185 -6 190 6 190 6 c 1
 27 398 l 1
 101 398 l 1
 226 87 l 1
 350 398 l 1
EndSplineSet
Validated: 1
EndChar

StartChar: thorn
Encoding: 254 254 186
Width: 450
GlyphClass: 1
Flags: HW
LayerCount: 2
Fore
SplineSet
223 407 m 1
 223 406 l 1
 329 406 399 341 399 197 c 0
 399 53 334 -12 223 -12 c 0
 179 -12 144 10 122 55 c 1
 122 -152 l 1
 52 -152 l 1
 52 557 l 1
 122 557 l 1
 122 344 l 1
 144 386 177 407 223 407 c 1
224 43 m 0
 279 43 326 81 326 198 c 0
 326 315 275 351 224 351 c 0
 173 351 122 315 122 198 c 0
 122 81 169 43 224 43 c 0
EndSplineSet
Validated: 1
EndChar

StartChar: ydieresis
Encoding: 255 255 187
Width: 450
GlyphClass: 1
Flags: HW
LayerCount: 2
Fore
SplineSet
179 470 m 2
 120 470 l 2
 115 470 111 474 111 479 c 2
 111 532 l 2
 111 537 115 541 120 541 c 2
 179 541 l 2
 184 541 188 537 188 532 c 2
 188 479 l 2
 188 474 184 470 179 470 c 2
329 470 m 2
 270 470 l 2
 265 470 261 474 261 479 c 2
 261 532 l 2
 261 537 265 541 270 541 c 2
 329 541 l 2
 334 541 338 537 338 532 c 2
 338 479 l 2
 338 474 334 470 329 470 c 2
350 398 m 1
 424 398 l 1
 424 398 280 53 240 -47 c 0
 200 -147 151 -152 113 -152 c 2
 57 -152 l 1
 57 -97 l 1
 57 -97 74 -96 104 -96 c 0
 146 -96 164 -56 178 -23 c 0
 185 -6 190 6 190 6 c 1
 27 398 l 1
 101 398 l 1
 226 87 l 1
 350 398 l 1
EndSplineSet
Validated: 1
EndChar

StartChar: amacron
Encoding: 257 257 188
Width: 450
GlyphClass: 1
Flags: HW
LayerCount: 2
Fore
SplineSet
392 232 m 2
 392 113 l 2
 392 56 412 0 412 0 c 1
 342 0 l 1
 342 0 333 23 326 61 c 1
 297 15 236 -10 187 -10 c 0
 101 -10 39 33 39 117 c 0
 39 200 98 252 225 252 c 2
 319 252 l 1
 319 269 l 2
 319 300 311 353 218 353 c 0
 131 353 73 315 73 315 c 1
 73 379 l 1
 111 392 152 410 219 410 c 0
 317 410 392 368 392 232 c 2
259 200 m 2
 161 200 108 193 108 119 c 0
 108 63 157 44 193 44 c 0
 292 44 320 126 320 190 c 2
 320 200 l 1
 259 200 l 2
335 479 m 1
 109 479 l 1
 109 532 l 1
 335 532 l 1
 335 479 l 1
EndSplineSet
Validated: 1
EndChar

StartChar: ellipsis
Encoding: 8230 8230 189
Width: 450
GlyphClass: 1
Flags: HW
LayerCount: 2
Fore
SplineSet
416 108 m 2
 423 108 428 102 428 95 c 2
 428 13 l 2
 428 6 423 0 416 0 c 2
 344 0 l 2
 337 0 332 6 332 13 c 2
 332 95 l 2
 332 102 337 108 344 108 c 2
 416 108 l 2
261 108 m 2
 268 108 273 102 273 95 c 2
 273 13 l 2
 273 6 268 0 261 0 c 2
 189 0 l 2
 182 0 177 6 177 13 c 2
 177 95 l 2
 177 102 182 108 189 108 c 2
 261 108 l 2
106 108 m 2
 113 108 118 102 118 95 c 2
 118 13 l 2
 118 6 113 0 106 0 c 2
 34 0 l 2
 27 0 22 6 22 13 c 2
 22 95 l 2
 22 102 27 108 34 108 c 2
 106 108 l 2
EndSplineSet
Validated: 1
EndChar

StartChar: Euro
Encoding: 8364 8364 190
Width: 450
GlyphClass: 1
Flags: HW
LayerCount: 2
Fore
SplineSet
307 487 m 0
 251 487 191 462 174 340 c 1
 356 340 l 1
 338 303 l 1
 171 303 l 1
 170 292 170 282 170 269 c 2
 170 235 l 1
 306 235 l 1
 287 197 l 1
 174 197 l 1
 191 71 254 51 308 51 c 0
 327 51 376 58 418 95 c 1
 418 23 l 1
 384 2 346 -6 308 -6 c 0
 185 -6 116 71 98 197 c 1
 32 197 l 1
 50 235 l 1
 95 235 l 1
 94 246 93 258 93 270 c 0
 93 282 94 292 95 303 c 1
 32 303 l 1
 50 340 l 1
 98 340 l 1
 117 467 188 544 304 544 c 0
 344 544 383 536 418 515 c 1
 418 442 l 1
 376 479 326 487 307 487 c 0
EndSplineSet
Validated: 1
EndChar

StartChar: unie912
Encoding: 59666 59666 191
Width: 450
GlyphClass: 1
Flags: HW
LayerCount: 2
Fore
SplineSet
425 307 m 1
 425 132 l 1
 361 132 l 1
 362 246 l 1
 25 246 l 1
 25 307 l 1
 425 307 l 1
EndSplineSet
Validated: 1
EndChar
